M48
; DRILL file KiCad 10.0.4 date 2026-08-15T21:38:23
; FORMAT={-:-/ absolute / inch / decimal}
; #@! TF.CreationDate,2026-08-15T21:38:23-04:00
; #@! TF.GenerationSoftware,Kicad,Pcbnew,10.0.4
; #@! TF.FileFunction,Plated,1,2,PTH
FMAT,2
INCH
; #@! TA.AperFunction,Plated,PTH,ComponentDrill
T1C0.0079
; #@! TA.AperFunction,Plated,PTH,ViaDrill
T2C0.0118
; #@! TA.AperFunction,Plated,PTH,ComponentDrill
T3C0.0236
; #@! TA.AperFunction,Plated,PTH,ComponentDrill
T4C0.0315
; #@! TA.AperFunction,Plated,PTH,ComponentDrill
T5C0.0394
; #@! TA.AperFunction,Plated,PTH,ComponentDrill
T6C0.0472
; #@! TA.AperFunction,Plated,PTH,ComponentDrill
T7C0.1280
%
G90
G05
T1
X5.212Y-2.8356
X5.212Y-2.8789
X5.2337Y-2.814
X5.2337Y-2.8573
X5.2337Y-2.9006
X5.2553Y-2.8356
X5.2553Y-2.8789
X5.277Y-2.814
X5.277Y-2.8573
X5.277Y-2.9006
X5.2986Y-2.8356
X5.2986Y-2.8789
T2
X4.252Y-3.1299
X4.7244Y-2.6575
X4.7835Y-3.0512
X4.7835Y-3.937
X5.0394Y-3.248
X5.3346Y-2.9921
X5.374Y-3.3858
X5.3937Y-2.9528
X5.7283Y-2.9921
X6.1417Y-2.8346
T4
X4.4784Y-3.878
X4.5589Y-3.5039
X4.5769Y-3.878
X4.6573Y-3.5039
X4.7835Y-3.5039
X4.7951Y-3.248
X4.8819Y-3.5039
X4.8935Y-3.248
X5.0394Y-3.5039
X5.1378Y-3.5039
X5.4921Y-3.2874
X5.5234Y-3.7598
X5.5906Y-3.2874
X5.6218Y-3.7598
X5.7874Y-3.7598
X5.8858Y-3.7598
T5
X3.9567Y-2.7559
X3.9567Y-2.8646
X3.9567Y-2.9732
X3.9567Y-3.0819
X4.0685Y-2.7016
X4.0685Y-2.8102
X4.0685Y-2.9189
X4.0685Y-3.0276
X4.0685Y-3.1362
T6
X4.7136Y-3.7687
X5.3136Y-3.7687
T7
X4.0126Y-2.4268
X4.0126Y-3.411
T3
G00X6.0165Y-2.6646
M15
G01X6.0598Y-2.6646
M16
G05
G00X6.0165Y-3.0047
M15
G01X6.0598Y-3.0047
M16
G05
G00X6.1909Y-2.6646
M15
G01X6.2146Y-2.6646
M16
G05
G00X6.1909Y-3.0047
M15
G01X6.2146Y-3.0047
M16
G05
M30
