%TF.GenerationSoftware,KiCad,Pcbnew,10.0.4*%
%TF.CreationDate,2026-08-15T21:38:23-04:00*%
%TF.ProjectId,projector,70726f6a-6563-4746-9f72-2e6b69636164,rev?*%
%TF.SameCoordinates,Original*%
%TF.FileFunction,Soldermask,Top*%
%TF.FilePolarity,Negative*%
%FSLAX46Y46*%
G04 Gerber Fmt 4.6, Leading zero omitted, Abs format (unit mm)*
G04 Created by KiCad (PCBNEW 10.0.4) date 2026-08-15 21:38:23*
%MOMM*%
%LPD*%
G01*
G04 APERTURE LIST*
G04 Aperture macros list*
%AMRoundRect*
0 Rectangle with rounded corners*
0 $1 Rounding radius*
0 $2 $3 $4 $5 $6 $7 $8 $9 X,Y pos of 4 corners*
0 Add a 4 corners polygon primitive as box body*
4,1,4,$2,$3,$4,$5,$6,$7,$8,$9,$2,$3,0*
0 Add four circle primitives for the rounded corners*
1,1,$1+$1,$2,$3*
1,1,$1+$1,$4,$5*
1,1,$1+$1,$6,$7*
1,1,$1+$1,$8,$9*
0 Add four rect primitives between the rounded corners*
20,1,$1+$1,$2,$3,$4,$5,0*
20,1,$1+$1,$4,$5,$6,$7,0*
20,1,$1+$1,$6,$7,$8,$9,0*
20,1,$1+$1,$8,$9,$2,$3,0*%
G04 Aperture macros list end*
%ADD10O,0.343000X1.731000*%
%ADD11RoundRect,0.250000X-0.550000X-0.550000X0.550000X-0.550000X0.550000X0.550000X-0.550000X0.550000X0*%
%ADD12C,1.600000*%
%ADD13RoundRect,0.140000X0.140000X0.170000X-0.140000X0.170000X-0.140000X-0.170000X0.140000X-0.170000X0*%
%ADD14RoundRect,0.375000X-0.625000X-0.375000X0.625000X-0.375000X0.625000X0.375000X-0.625000X0.375000X0*%
%ADD15RoundRect,0.500000X-0.500000X-1.400000X0.500000X-1.400000X0.500000X1.400000X-0.500000X1.400000X0*%
%ADD16R,1.575000X1.575000*%
%ADD17C,1.575000*%
%ADD18C,5.000000*%
%ADD19C,2.400000*%
%ADD20R,1.500000X0.900000*%
%ADD21C,0.600000*%
%ADD22R,2.900000X2.900000*%
%ADD23RoundRect,0.150000X0.575000X-0.150000X0.575000X0.150000X-0.575000X0.150000X-0.575000X-0.150000X0*%
%ADD24RoundRect,0.075000X0.650000X-0.075000X0.650000X0.075000X-0.650000X0.075000X-0.650000X-0.075000X0*%
%ADD25O,2.100000X1.000000*%
%ADD26O,1.600000X1.000000*%
G04 APERTURE END LIST*
D10*
%TO.C,U3*%
X117440000Y-74740000D03*
X118090000Y-74740000D03*
X118740000Y-74740000D03*
X119400000Y-74740000D03*
X120050000Y-74740000D03*
X120700000Y-74740000D03*
X121350000Y-74740000D03*
X122000000Y-74740000D03*
X122000000Y-69000000D03*
X121350000Y-69000000D03*
X120700000Y-69000000D03*
X120050000Y-69000000D03*
X119400000Y-69000000D03*
X118740000Y-69000000D03*
X118090000Y-69000000D03*
X117440000Y-69000000D03*
%TD*%
D11*
%TO.C,C2*%
X121500000Y-89000000D03*
D12*
X124000000Y-89000000D03*
%TD*%
D11*
%TO.C,C8*%
X128000000Y-89000000D03*
D12*
X130500000Y-89000000D03*
%TD*%
D13*
%TO.C,R1*%
X149500000Y-70000000D03*
X148540000Y-70000000D03*
%TD*%
D11*
%TO.C,C7*%
X139500000Y-83500000D03*
D12*
X142000000Y-83500000D03*
%TD*%
D14*
%TO.C,U1*%
X146350000Y-80700000D03*
X146350000Y-83000000D03*
D15*
X152650000Y-83000000D03*
D14*
X146350000Y-85300000D03*
%TD*%
D13*
%TO.C,R2*%
X149460000Y-73000000D03*
X148500000Y-73000000D03*
%TD*%
D11*
%TO.C,C3*%
X140294888Y-95500000D03*
D12*
X142794888Y-95500000D03*
%TD*%
D16*
%TO.C,J1*%
X103340000Y-68620000D03*
D17*
X103340000Y-71380000D03*
X103340000Y-74140000D03*
X103340000Y-76900000D03*
X103340000Y-79660000D03*
X100500000Y-70000000D03*
X100500000Y-72760000D03*
X100500000Y-75520000D03*
X100500000Y-78280000D03*
D18*
X101920000Y-86640000D03*
X101920000Y-61640000D03*
%TD*%
D19*
%TO.C,R3*%
X119725000Y-95725000D03*
X134965000Y-95725000D03*
%TD*%
D11*
%TO.C,C1*%
X115794888Y-89000000D03*
D12*
X118294888Y-89000000D03*
%TD*%
D11*
%TO.C,C5*%
X121794888Y-82500000D03*
D12*
X124294888Y-82500000D03*
%TD*%
D20*
%TO.C,U2*%
X123775000Y-66375000D03*
X123775000Y-67875000D03*
X123775000Y-69375000D03*
X123775000Y-70875000D03*
X123775000Y-72375000D03*
X123775000Y-73875000D03*
X123775000Y-75375000D03*
X123775000Y-76875000D03*
X123775000Y-78375000D03*
X141275000Y-78375000D03*
X141275000Y-76875000D03*
X141275000Y-75375000D03*
X141275000Y-73875000D03*
X141275000Y-72375000D03*
X141275000Y-70875000D03*
X141275000Y-69375000D03*
X141275000Y-67875000D03*
X141275000Y-66375000D03*
D21*
X132385000Y-72025000D03*
X132385000Y-73125000D03*
X132935000Y-71475000D03*
X132935000Y-72575000D03*
X132935000Y-73675000D03*
X133485000Y-72025000D03*
D22*
X133485000Y-72575000D03*
D21*
X133485000Y-73125000D03*
X134035000Y-71475000D03*
X134035000Y-72575000D03*
X134035000Y-73675000D03*
X134585000Y-72025000D03*
X134585000Y-73125000D03*
%TD*%
D11*
%TO.C,C4*%
X113752446Y-98500000D03*
D12*
X116252446Y-98500000D03*
%TD*%
D11*
%TO.C,C6*%
X147000000Y-95500000D03*
D12*
X149500000Y-95500000D03*
%TD*%
D23*
%TO.C,J2*%
X152455000Y-75250000D03*
X152455000Y-74450000D03*
D24*
X152455000Y-73250000D03*
X152455000Y-72250000D03*
X152455000Y-71750000D03*
X152455000Y-70750000D03*
D23*
X152455000Y-69550000D03*
X152455000Y-68750000D03*
X152455000Y-68750000D03*
X152455000Y-69550000D03*
D24*
X152455000Y-70250000D03*
X152455000Y-71250000D03*
X152455000Y-72750000D03*
X152455000Y-73750000D03*
D23*
X152455000Y-74450000D03*
X152455000Y-75250000D03*
D25*
X153370000Y-76320000D03*
D26*
X157550000Y-76320000D03*
D25*
X153370000Y-67680000D03*
D26*
X157550000Y-67680000D03*
%TD*%
M02*
