%TF.GenerationSoftware,KiCad,Pcbnew,10.0.4*%
%TF.CreationDate,2026-08-15T21:38:23-04:00*%
%TF.ProjectId,projector,70726f6a-6563-4746-9f72-2e6b69636164,rev?*%
%TF.SameCoordinates,Original*%
%TF.FileFunction,Legend,Top*%
%TF.FilePolarity,Positive*%
%FSLAX46Y46*%
G04 Gerber Fmt 4.6, Leading zero omitted, Abs format (unit mm)*
G04 Created by KiCad (PCBNEW 10.0.4) date 2026-08-15 21:38:23*
%MOMM*%
%LPD*%
G01*
G04 APERTURE LIST*
G04 Aperture macros list*
%AMRoundRect*
0 Rectangle with rounded corners*
0 $1 Rounding radius*
0 $2 $3 $4 $5 $6 $7 $8 $9 X,Y pos of 4 corners*
0 Add a 4 corners polygon primitive as box body*
4,1,4,$2,$3,$4,$5,$6,$7,$8,$9,$2,$3,0*
0 Add four circle primitives for the rounded corners*
1,1,$1+$1,$2,$3*
1,1,$1+$1,$4,$5*
1,1,$1+$1,$6,$7*
1,1,$1+$1,$8,$9*
0 Add four rect primitives between the rounded corners*
20,1,$1+$1,$2,$3,$4,$5,0*
20,1,$1+$1,$4,$5,$6,$7,0*
20,1,$1+$1,$6,$7,$8,$9,0*
20,1,$1+$1,$8,$9,$2,$3,0*%
G04 Aperture macros list end*
%ADD10C,0.150000*%
%ADD11C,0.300000*%
%ADD12C,0.060000*%
%ADD13C,0.120000*%
%ADD14C,0.250000*%
%ADD15O,0.343000X1.731000*%
%ADD16RoundRect,0.250000X-0.550000X-0.550000X0.550000X-0.550000X0.550000X0.550000X-0.550000X0.550000X0*%
%ADD17C,1.600000*%
%ADD18RoundRect,0.140000X0.140000X0.170000X-0.140000X0.170000X-0.140000X-0.170000X0.140000X-0.170000X0*%
%ADD19RoundRect,0.375000X-0.625000X-0.375000X0.625000X-0.375000X0.625000X0.375000X-0.625000X0.375000X0*%
%ADD20RoundRect,0.500000X-0.500000X-1.400000X0.500000X-1.400000X0.500000X1.400000X-0.500000X1.400000X0*%
%ADD21R,1.575000X1.575000*%
%ADD22C,1.575000*%
%ADD23C,5.000000*%
%ADD24C,2.400000*%
%ADD25R,1.500000X0.900000*%
%ADD26C,0.600000*%
%ADD27R,2.900000X2.900000*%
%ADD28C,0.650000*%
%ADD29RoundRect,0.150000X0.575000X-0.150000X0.575000X0.150000X-0.575000X0.150000X-0.575000X-0.150000X0*%
%ADD30RoundRect,0.075000X0.650000X-0.075000X0.650000X0.075000X-0.650000X0.075000X-0.650000X-0.075000X0*%
%ADD31O,2.100000X1.000000*%
%ADD32O,1.600000X1.000000*%
G04 APERTURE END LIST*
D10*
X118958095Y-64458819D02*
X118958095Y-65268342D01*
X118958095Y-65268342D02*
X119005714Y-65363580D01*
X119005714Y-65363580D02*
X119053333Y-65411200D01*
X119053333Y-65411200D02*
X119148571Y-65458819D01*
X119148571Y-65458819D02*
X119339047Y-65458819D01*
X119339047Y-65458819D02*
X119434285Y-65411200D01*
X119434285Y-65411200D02*
X119481904Y-65363580D01*
X119481904Y-65363580D02*
X119529523Y-65268342D01*
X119529523Y-65268342D02*
X119529523Y-64458819D01*
X119910476Y-64458819D02*
X120529523Y-64458819D01*
X120529523Y-64458819D02*
X120196190Y-64839771D01*
X120196190Y-64839771D02*
X120339047Y-64839771D01*
X120339047Y-64839771D02*
X120434285Y-64887390D01*
X120434285Y-64887390D02*
X120481904Y-64935009D01*
X120481904Y-64935009D02*
X120529523Y-65030247D01*
X120529523Y-65030247D02*
X120529523Y-65268342D01*
X120529523Y-65268342D02*
X120481904Y-65363580D01*
X120481904Y-65363580D02*
X120434285Y-65411200D01*
X120434285Y-65411200D02*
X120339047Y-65458819D01*
X120339047Y-65458819D02*
X120053333Y-65458819D01*
X120053333Y-65458819D02*
X119958095Y-65411200D01*
X119958095Y-65411200D02*
X119910476Y-65363580D01*
X122583333Y-85609580D02*
X122535714Y-85657200D01*
X122535714Y-85657200D02*
X122392857Y-85704819D01*
X122392857Y-85704819D02*
X122297619Y-85704819D01*
X122297619Y-85704819D02*
X122154762Y-85657200D01*
X122154762Y-85657200D02*
X122059524Y-85561961D01*
X122059524Y-85561961D02*
X122011905Y-85466723D01*
X122011905Y-85466723D02*
X121964286Y-85276247D01*
X121964286Y-85276247D02*
X121964286Y-85133390D01*
X121964286Y-85133390D02*
X122011905Y-84942914D01*
X122011905Y-84942914D02*
X122059524Y-84847676D01*
X122059524Y-84847676D02*
X122154762Y-84752438D01*
X122154762Y-84752438D02*
X122297619Y-84704819D01*
X122297619Y-84704819D02*
X122392857Y-84704819D01*
X122392857Y-84704819D02*
X122535714Y-84752438D01*
X122535714Y-84752438D02*
X122583333Y-84800057D01*
X122964286Y-84800057D02*
X123011905Y-84752438D01*
X123011905Y-84752438D02*
X123107143Y-84704819D01*
X123107143Y-84704819D02*
X123345238Y-84704819D01*
X123345238Y-84704819D02*
X123440476Y-84752438D01*
X123440476Y-84752438D02*
X123488095Y-84800057D01*
X123488095Y-84800057D02*
X123535714Y-84895295D01*
X123535714Y-84895295D02*
X123535714Y-84990533D01*
X123535714Y-84990533D02*
X123488095Y-85133390D01*
X123488095Y-85133390D02*
X122916667Y-85704819D01*
X122916667Y-85704819D02*
X123535714Y-85704819D01*
X129083333Y-85609580D02*
X129035714Y-85657200D01*
X129035714Y-85657200D02*
X128892857Y-85704819D01*
X128892857Y-85704819D02*
X128797619Y-85704819D01*
X128797619Y-85704819D02*
X128654762Y-85657200D01*
X128654762Y-85657200D02*
X128559524Y-85561961D01*
X128559524Y-85561961D02*
X128511905Y-85466723D01*
X128511905Y-85466723D02*
X128464286Y-85276247D01*
X128464286Y-85276247D02*
X128464286Y-85133390D01*
X128464286Y-85133390D02*
X128511905Y-84942914D01*
X128511905Y-84942914D02*
X128559524Y-84847676D01*
X128559524Y-84847676D02*
X128654762Y-84752438D01*
X128654762Y-84752438D02*
X128797619Y-84704819D01*
X128797619Y-84704819D02*
X128892857Y-84704819D01*
X128892857Y-84704819D02*
X129035714Y-84752438D01*
X129035714Y-84752438D02*
X129083333Y-84800057D01*
X129654762Y-85133390D02*
X129559524Y-85085771D01*
X129559524Y-85085771D02*
X129511905Y-85038152D01*
X129511905Y-85038152D02*
X129464286Y-84942914D01*
X129464286Y-84942914D02*
X129464286Y-84895295D01*
X129464286Y-84895295D02*
X129511905Y-84800057D01*
X129511905Y-84800057D02*
X129559524Y-84752438D01*
X129559524Y-84752438D02*
X129654762Y-84704819D01*
X129654762Y-84704819D02*
X129845238Y-84704819D01*
X129845238Y-84704819D02*
X129940476Y-84752438D01*
X129940476Y-84752438D02*
X129988095Y-84800057D01*
X129988095Y-84800057D02*
X130035714Y-84895295D01*
X130035714Y-84895295D02*
X130035714Y-84942914D01*
X130035714Y-84942914D02*
X129988095Y-85038152D01*
X129988095Y-85038152D02*
X129940476Y-85085771D01*
X129940476Y-85085771D02*
X129845238Y-85133390D01*
X129845238Y-85133390D02*
X129654762Y-85133390D01*
X129654762Y-85133390D02*
X129559524Y-85181009D01*
X129559524Y-85181009D02*
X129511905Y-85228628D01*
X129511905Y-85228628D02*
X129464286Y-85323866D01*
X129464286Y-85323866D02*
X129464286Y-85514342D01*
X129464286Y-85514342D02*
X129511905Y-85609580D01*
X129511905Y-85609580D02*
X129559524Y-85657200D01*
X129559524Y-85657200D02*
X129654762Y-85704819D01*
X129654762Y-85704819D02*
X129845238Y-85704819D01*
X129845238Y-85704819D02*
X129940476Y-85657200D01*
X129940476Y-85657200D02*
X129988095Y-85609580D01*
X129988095Y-85609580D02*
X130035714Y-85514342D01*
X130035714Y-85514342D02*
X130035714Y-85323866D01*
X130035714Y-85323866D02*
X129988095Y-85228628D01*
X129988095Y-85228628D02*
X129940476Y-85181009D01*
X129940476Y-85181009D02*
X129845238Y-85133390D01*
X148853333Y-71614819D02*
X148520000Y-71138628D01*
X148281905Y-71614819D02*
X148281905Y-70614819D01*
X148281905Y-70614819D02*
X148662857Y-70614819D01*
X148662857Y-70614819D02*
X148758095Y-70662438D01*
X148758095Y-70662438D02*
X148805714Y-70710057D01*
X148805714Y-70710057D02*
X148853333Y-70805295D01*
X148853333Y-70805295D02*
X148853333Y-70948152D01*
X148853333Y-70948152D02*
X148805714Y-71043390D01*
X148805714Y-71043390D02*
X148758095Y-71091009D01*
X148758095Y-71091009D02*
X148662857Y-71138628D01*
X148662857Y-71138628D02*
X148281905Y-71138628D01*
X149805714Y-71614819D02*
X149234286Y-71614819D01*
X149520000Y-71614819D02*
X149520000Y-70614819D01*
X149520000Y-70614819D02*
X149424762Y-70757676D01*
X149424762Y-70757676D02*
X149329524Y-70852914D01*
X149329524Y-70852914D02*
X149234286Y-70900533D01*
X140583333Y-80109580D02*
X140535714Y-80157200D01*
X140535714Y-80157200D02*
X140392857Y-80204819D01*
X140392857Y-80204819D02*
X140297619Y-80204819D01*
X140297619Y-80204819D02*
X140154762Y-80157200D01*
X140154762Y-80157200D02*
X140059524Y-80061961D01*
X140059524Y-80061961D02*
X140011905Y-79966723D01*
X140011905Y-79966723D02*
X139964286Y-79776247D01*
X139964286Y-79776247D02*
X139964286Y-79633390D01*
X139964286Y-79633390D02*
X140011905Y-79442914D01*
X140011905Y-79442914D02*
X140059524Y-79347676D01*
X140059524Y-79347676D02*
X140154762Y-79252438D01*
X140154762Y-79252438D02*
X140297619Y-79204819D01*
X140297619Y-79204819D02*
X140392857Y-79204819D01*
X140392857Y-79204819D02*
X140535714Y-79252438D01*
X140535714Y-79252438D02*
X140583333Y-79300057D01*
X140916667Y-79204819D02*
X141583333Y-79204819D01*
X141583333Y-79204819D02*
X141154762Y-80204819D01*
X148738095Y-77954819D02*
X148738095Y-78764342D01*
X148738095Y-78764342D02*
X148785714Y-78859580D01*
X148785714Y-78859580D02*
X148833333Y-78907200D01*
X148833333Y-78907200D02*
X148928571Y-78954819D01*
X148928571Y-78954819D02*
X149119047Y-78954819D01*
X149119047Y-78954819D02*
X149214285Y-78907200D01*
X149214285Y-78907200D02*
X149261904Y-78859580D01*
X149261904Y-78859580D02*
X149309523Y-78764342D01*
X149309523Y-78764342D02*
X149309523Y-77954819D01*
X150309523Y-78954819D02*
X149738095Y-78954819D01*
X150023809Y-78954819D02*
X150023809Y-77954819D01*
X150023809Y-77954819D02*
X149928571Y-78097676D01*
X149928571Y-78097676D02*
X149833333Y-78192914D01*
X149833333Y-78192914D02*
X149738095Y-78240533D01*
X148813333Y-74614819D02*
X148480000Y-74138628D01*
X148241905Y-74614819D02*
X148241905Y-73614819D01*
X148241905Y-73614819D02*
X148622857Y-73614819D01*
X148622857Y-73614819D02*
X148718095Y-73662438D01*
X148718095Y-73662438D02*
X148765714Y-73710057D01*
X148765714Y-73710057D02*
X148813333Y-73805295D01*
X148813333Y-73805295D02*
X148813333Y-73948152D01*
X148813333Y-73948152D02*
X148765714Y-74043390D01*
X148765714Y-74043390D02*
X148718095Y-74091009D01*
X148718095Y-74091009D02*
X148622857Y-74138628D01*
X148622857Y-74138628D02*
X148241905Y-74138628D01*
X149194286Y-73710057D02*
X149241905Y-73662438D01*
X149241905Y-73662438D02*
X149337143Y-73614819D01*
X149337143Y-73614819D02*
X149575238Y-73614819D01*
X149575238Y-73614819D02*
X149670476Y-73662438D01*
X149670476Y-73662438D02*
X149718095Y-73710057D01*
X149718095Y-73710057D02*
X149765714Y-73805295D01*
X149765714Y-73805295D02*
X149765714Y-73900533D01*
X149765714Y-73900533D02*
X149718095Y-74043390D01*
X149718095Y-74043390D02*
X149146667Y-74614819D01*
X149146667Y-74614819D02*
X149765714Y-74614819D01*
X141378221Y-92109580D02*
X141330602Y-92157200D01*
X141330602Y-92157200D02*
X141187745Y-92204819D01*
X141187745Y-92204819D02*
X141092507Y-92204819D01*
X141092507Y-92204819D02*
X140949650Y-92157200D01*
X140949650Y-92157200D02*
X140854412Y-92061961D01*
X140854412Y-92061961D02*
X140806793Y-91966723D01*
X140806793Y-91966723D02*
X140759174Y-91776247D01*
X140759174Y-91776247D02*
X140759174Y-91633390D01*
X140759174Y-91633390D02*
X140806793Y-91442914D01*
X140806793Y-91442914D02*
X140854412Y-91347676D01*
X140854412Y-91347676D02*
X140949650Y-91252438D01*
X140949650Y-91252438D02*
X141092507Y-91204819D01*
X141092507Y-91204819D02*
X141187745Y-91204819D01*
X141187745Y-91204819D02*
X141330602Y-91252438D01*
X141330602Y-91252438D02*
X141378221Y-91300057D01*
X141711555Y-91204819D02*
X142330602Y-91204819D01*
X142330602Y-91204819D02*
X141997269Y-91585771D01*
X141997269Y-91585771D02*
X142140126Y-91585771D01*
X142140126Y-91585771D02*
X142235364Y-91633390D01*
X142235364Y-91633390D02*
X142282983Y-91681009D01*
X142282983Y-91681009D02*
X142330602Y-91776247D01*
X142330602Y-91776247D02*
X142330602Y-92014342D01*
X142330602Y-92014342D02*
X142282983Y-92109580D01*
X142282983Y-92109580D02*
X142235364Y-92157200D01*
X142235364Y-92157200D02*
X142140126Y-92204819D01*
X142140126Y-92204819D02*
X141854412Y-92204819D01*
X141854412Y-92204819D02*
X141759174Y-92157200D01*
X141759174Y-92157200D02*
X141711555Y-92109580D01*
X101586666Y-90094819D02*
X101586666Y-90809104D01*
X101586666Y-90809104D02*
X101539047Y-90951961D01*
X101539047Y-90951961D02*
X101443809Y-91047200D01*
X101443809Y-91047200D02*
X101300952Y-91094819D01*
X101300952Y-91094819D02*
X101205714Y-91094819D01*
X102586666Y-91094819D02*
X102015238Y-91094819D01*
X102300952Y-91094819D02*
X102300952Y-90094819D01*
X102300952Y-90094819D02*
X102205714Y-90237676D01*
X102205714Y-90237676D02*
X102110476Y-90332914D01*
X102110476Y-90332914D02*
X102015238Y-90380533D01*
X127178333Y-93259819D02*
X126845000Y-92783628D01*
X126606905Y-93259819D02*
X126606905Y-92259819D01*
X126606905Y-92259819D02*
X126987857Y-92259819D01*
X126987857Y-92259819D02*
X127083095Y-92307438D01*
X127083095Y-92307438D02*
X127130714Y-92355057D01*
X127130714Y-92355057D02*
X127178333Y-92450295D01*
X127178333Y-92450295D02*
X127178333Y-92593152D01*
X127178333Y-92593152D02*
X127130714Y-92688390D01*
X127130714Y-92688390D02*
X127083095Y-92736009D01*
X127083095Y-92736009D02*
X126987857Y-92783628D01*
X126987857Y-92783628D02*
X126606905Y-92783628D01*
X127511667Y-92259819D02*
X128130714Y-92259819D01*
X128130714Y-92259819D02*
X127797381Y-92640771D01*
X127797381Y-92640771D02*
X127940238Y-92640771D01*
X127940238Y-92640771D02*
X128035476Y-92688390D01*
X128035476Y-92688390D02*
X128083095Y-92736009D01*
X128083095Y-92736009D02*
X128130714Y-92831247D01*
X128130714Y-92831247D02*
X128130714Y-93069342D01*
X128130714Y-93069342D02*
X128083095Y-93164580D01*
X128083095Y-93164580D02*
X128035476Y-93212200D01*
X128035476Y-93212200D02*
X127940238Y-93259819D01*
X127940238Y-93259819D02*
X127654524Y-93259819D01*
X127654524Y-93259819D02*
X127559286Y-93212200D01*
X127559286Y-93212200D02*
X127511667Y-93164580D01*
X116878221Y-85609580D02*
X116830602Y-85657200D01*
X116830602Y-85657200D02*
X116687745Y-85704819D01*
X116687745Y-85704819D02*
X116592507Y-85704819D01*
X116592507Y-85704819D02*
X116449650Y-85657200D01*
X116449650Y-85657200D02*
X116354412Y-85561961D01*
X116354412Y-85561961D02*
X116306793Y-85466723D01*
X116306793Y-85466723D02*
X116259174Y-85276247D01*
X116259174Y-85276247D02*
X116259174Y-85133390D01*
X116259174Y-85133390D02*
X116306793Y-84942914D01*
X116306793Y-84942914D02*
X116354412Y-84847676D01*
X116354412Y-84847676D02*
X116449650Y-84752438D01*
X116449650Y-84752438D02*
X116592507Y-84704819D01*
X116592507Y-84704819D02*
X116687745Y-84704819D01*
X116687745Y-84704819D02*
X116830602Y-84752438D01*
X116830602Y-84752438D02*
X116878221Y-84800057D01*
X117830602Y-85704819D02*
X117259174Y-85704819D01*
X117544888Y-85704819D02*
X117544888Y-84704819D01*
X117544888Y-84704819D02*
X117449650Y-84847676D01*
X117449650Y-84847676D02*
X117354412Y-84942914D01*
X117354412Y-84942914D02*
X117259174Y-84990533D01*
X122878221Y-79109580D02*
X122830602Y-79157200D01*
X122830602Y-79157200D02*
X122687745Y-79204819D01*
X122687745Y-79204819D02*
X122592507Y-79204819D01*
X122592507Y-79204819D02*
X122449650Y-79157200D01*
X122449650Y-79157200D02*
X122354412Y-79061961D01*
X122354412Y-79061961D02*
X122306793Y-78966723D01*
X122306793Y-78966723D02*
X122259174Y-78776247D01*
X122259174Y-78776247D02*
X122259174Y-78633390D01*
X122259174Y-78633390D02*
X122306793Y-78442914D01*
X122306793Y-78442914D02*
X122354412Y-78347676D01*
X122354412Y-78347676D02*
X122449650Y-78252438D01*
X122449650Y-78252438D02*
X122592507Y-78204819D01*
X122592507Y-78204819D02*
X122687745Y-78204819D01*
X122687745Y-78204819D02*
X122830602Y-78252438D01*
X122830602Y-78252438D02*
X122878221Y-78300057D01*
X123782983Y-78204819D02*
X123306793Y-78204819D01*
X123306793Y-78204819D02*
X123259174Y-78681009D01*
X123259174Y-78681009D02*
X123306793Y-78633390D01*
X123306793Y-78633390D02*
X123402031Y-78585771D01*
X123402031Y-78585771D02*
X123640126Y-78585771D01*
X123640126Y-78585771D02*
X123735364Y-78633390D01*
X123735364Y-78633390D02*
X123782983Y-78681009D01*
X123782983Y-78681009D02*
X123830602Y-78776247D01*
X123830602Y-78776247D02*
X123830602Y-79014342D01*
X123830602Y-79014342D02*
X123782983Y-79109580D01*
X123782983Y-79109580D02*
X123735364Y-79157200D01*
X123735364Y-79157200D02*
X123640126Y-79204819D01*
X123640126Y-79204819D02*
X123402031Y-79204819D01*
X123402031Y-79204819D02*
X123306793Y-79157200D01*
X123306793Y-79157200D02*
X123259174Y-79109580D01*
X121479819Y-78266904D02*
X122289342Y-78266904D01*
X122289342Y-78266904D02*
X122384580Y-78219285D01*
X122384580Y-78219285D02*
X122432200Y-78171666D01*
X122432200Y-78171666D02*
X122479819Y-78076428D01*
X122479819Y-78076428D02*
X122479819Y-77885952D01*
X122479819Y-77885952D02*
X122432200Y-77790714D01*
X122432200Y-77790714D02*
X122384580Y-77743095D01*
X122384580Y-77743095D02*
X122289342Y-77695476D01*
X122289342Y-77695476D02*
X121479819Y-77695476D01*
X121575057Y-77266904D02*
X121527438Y-77219285D01*
X121527438Y-77219285D02*
X121479819Y-77124047D01*
X121479819Y-77124047D02*
X121479819Y-76885952D01*
X121479819Y-76885952D02*
X121527438Y-76790714D01*
X121527438Y-76790714D02*
X121575057Y-76743095D01*
X121575057Y-76743095D02*
X121670295Y-76695476D01*
X121670295Y-76695476D02*
X121765533Y-76695476D01*
X121765533Y-76695476D02*
X121908390Y-76743095D01*
X121908390Y-76743095D02*
X122479819Y-77314523D01*
X122479819Y-77314523D02*
X122479819Y-76695476D01*
X114835779Y-95109580D02*
X114788160Y-95157200D01*
X114788160Y-95157200D02*
X114645303Y-95204819D01*
X114645303Y-95204819D02*
X114550065Y-95204819D01*
X114550065Y-95204819D02*
X114407208Y-95157200D01*
X114407208Y-95157200D02*
X114311970Y-95061961D01*
X114311970Y-95061961D02*
X114264351Y-94966723D01*
X114264351Y-94966723D02*
X114216732Y-94776247D01*
X114216732Y-94776247D02*
X114216732Y-94633390D01*
X114216732Y-94633390D02*
X114264351Y-94442914D01*
X114264351Y-94442914D02*
X114311970Y-94347676D01*
X114311970Y-94347676D02*
X114407208Y-94252438D01*
X114407208Y-94252438D02*
X114550065Y-94204819D01*
X114550065Y-94204819D02*
X114645303Y-94204819D01*
X114645303Y-94204819D02*
X114788160Y-94252438D01*
X114788160Y-94252438D02*
X114835779Y-94300057D01*
X115692922Y-94538152D02*
X115692922Y-95204819D01*
X115454827Y-94157200D02*
X115216732Y-94871485D01*
X115216732Y-94871485D02*
X115835779Y-94871485D01*
X148083333Y-92109580D02*
X148035714Y-92157200D01*
X148035714Y-92157200D02*
X147892857Y-92204819D01*
X147892857Y-92204819D02*
X147797619Y-92204819D01*
X147797619Y-92204819D02*
X147654762Y-92157200D01*
X147654762Y-92157200D02*
X147559524Y-92061961D01*
X147559524Y-92061961D02*
X147511905Y-91966723D01*
X147511905Y-91966723D02*
X147464286Y-91776247D01*
X147464286Y-91776247D02*
X147464286Y-91633390D01*
X147464286Y-91633390D02*
X147511905Y-91442914D01*
X147511905Y-91442914D02*
X147559524Y-91347676D01*
X147559524Y-91347676D02*
X147654762Y-91252438D01*
X147654762Y-91252438D02*
X147797619Y-91204819D01*
X147797619Y-91204819D02*
X147892857Y-91204819D01*
X147892857Y-91204819D02*
X148035714Y-91252438D01*
X148035714Y-91252438D02*
X148083333Y-91300057D01*
X148940476Y-91204819D02*
X148750000Y-91204819D01*
X148750000Y-91204819D02*
X148654762Y-91252438D01*
X148654762Y-91252438D02*
X148607143Y-91300057D01*
X148607143Y-91300057D02*
X148511905Y-91442914D01*
X148511905Y-91442914D02*
X148464286Y-91633390D01*
X148464286Y-91633390D02*
X148464286Y-92014342D01*
X148464286Y-92014342D02*
X148511905Y-92109580D01*
X148511905Y-92109580D02*
X148559524Y-92157200D01*
X148559524Y-92157200D02*
X148654762Y-92204819D01*
X148654762Y-92204819D02*
X148845238Y-92204819D01*
X148845238Y-92204819D02*
X148940476Y-92157200D01*
X148940476Y-92157200D02*
X148988095Y-92109580D01*
X148988095Y-92109580D02*
X149035714Y-92014342D01*
X149035714Y-92014342D02*
X149035714Y-91776247D01*
X149035714Y-91776247D02*
X148988095Y-91681009D01*
X148988095Y-91681009D02*
X148940476Y-91633390D01*
X148940476Y-91633390D02*
X148845238Y-91585771D01*
X148845238Y-91585771D02*
X148654762Y-91585771D01*
X148654762Y-91585771D02*
X148559524Y-91633390D01*
X148559524Y-91633390D02*
X148511905Y-91681009D01*
X148511905Y-91681009D02*
X148464286Y-91776247D01*
X150309819Y-72333333D02*
X151024104Y-72333333D01*
X151024104Y-72333333D02*
X151166961Y-72380952D01*
X151166961Y-72380952D02*
X151262200Y-72476190D01*
X151262200Y-72476190D02*
X151309819Y-72619047D01*
X151309819Y-72619047D02*
X151309819Y-72714285D01*
X150405057Y-71904761D02*
X150357438Y-71857142D01*
X150357438Y-71857142D02*
X150309819Y-71761904D01*
X150309819Y-71761904D02*
X150309819Y-71523809D01*
X150309819Y-71523809D02*
X150357438Y-71428571D01*
X150357438Y-71428571D02*
X150405057Y-71380952D01*
X150405057Y-71380952D02*
X150500295Y-71333333D01*
X150500295Y-71333333D02*
X150595533Y-71333333D01*
X150595533Y-71333333D02*
X150738390Y-71380952D01*
X150738390Y-71380952D02*
X151309819Y-71952380D01*
X151309819Y-71952380D02*
X151309819Y-71333333D01*
%TO.C,U3*%
X117140000Y-70100000D02*
X122300000Y-70100000D01*
X117140000Y-73640000D02*
X117140000Y-70100000D01*
X122300000Y-70100000D02*
X122300000Y-73640000D01*
X122300000Y-73640000D02*
X117140000Y-73640000D01*
D11*
X116970000Y-74740000D02*
G75*
G02*
X116670000Y-74740000I-150000J0D01*
G01*
X116670000Y-74740000D02*
G75*
G02*
X116970000Y-74740000I150000J0D01*
G01*
D12*
X117250000Y-75070000D02*
G75*
G02*
X117190000Y-75070000I-30000J0D01*
G01*
X117190000Y-75070000D02*
G75*
G02*
X117250000Y-75070000I30000J0D01*
G01*
D11*
X117840000Y-73140000D02*
G75*
G02*
X117540000Y-73140000I-150000J0D01*
G01*
X117540000Y-73140000D02*
G75*
G02*
X117840000Y-73140000I150000J0D01*
G01*
%TO.C,C2*%
D13*
X119945225Y-87525000D02*
X120445225Y-87525000D01*
X120195225Y-87275000D02*
X120195225Y-87775000D01*
X122750000Y-86420000D02*
X122750000Y-91580000D01*
X122790000Y-86420000D02*
X122790000Y-91580000D01*
X122830000Y-86421000D02*
X122830000Y-91579000D01*
X122870000Y-86423000D02*
X122870000Y-91577000D01*
X122910000Y-86425000D02*
X122910000Y-91575000D01*
X122950000Y-86428000D02*
X122950000Y-91572000D01*
X122990000Y-86431000D02*
X122990000Y-87960000D01*
X122990000Y-90040000D02*
X122990000Y-91569000D01*
X123030000Y-86435000D02*
X123030000Y-87960000D01*
X123030000Y-90040000D02*
X123030000Y-91565000D01*
X123070000Y-86440000D02*
X123070000Y-87960000D01*
X123070000Y-90040000D02*
X123070000Y-91560000D01*
X123110000Y-86445000D02*
X123110000Y-87960000D01*
X123110000Y-90040000D02*
X123110000Y-91555000D01*
X123150000Y-86451000D02*
X123150000Y-87960000D01*
X123150000Y-90040000D02*
X123150000Y-91549000D01*
X123190000Y-86457000D02*
X123190000Y-87960000D01*
X123190000Y-90040000D02*
X123190000Y-91543000D01*
X123230000Y-86464000D02*
X123230000Y-87960000D01*
X123230000Y-90040000D02*
X123230000Y-91536000D01*
X123270000Y-86472000D02*
X123270000Y-87960000D01*
X123270000Y-90040000D02*
X123270000Y-91528000D01*
X123310000Y-86481000D02*
X123310000Y-87960000D01*
X123310000Y-90040000D02*
X123310000Y-91519000D01*
X123350000Y-86490000D02*
X123350000Y-87960000D01*
X123350000Y-90040000D02*
X123350000Y-91510000D01*
X123390000Y-86499000D02*
X123390000Y-87960000D01*
X123390000Y-90040000D02*
X123390000Y-91501000D01*
X123430000Y-86510000D02*
X123430000Y-87960000D01*
X123430000Y-90040000D02*
X123430000Y-91490000D01*
X123470000Y-86521000D02*
X123470000Y-87960000D01*
X123470000Y-90040000D02*
X123470000Y-91479000D01*
X123510000Y-86533000D02*
X123510000Y-87960000D01*
X123510000Y-90040000D02*
X123510000Y-91467000D01*
X123550000Y-86545000D02*
X123550000Y-87960000D01*
X123550000Y-90040000D02*
X123550000Y-91455000D01*
X123590000Y-86558000D02*
X123590000Y-87960000D01*
X123590000Y-90040000D02*
X123590000Y-91442000D01*
X123630000Y-86572000D02*
X123630000Y-87960000D01*
X123630000Y-90040000D02*
X123630000Y-91428000D01*
X123670000Y-86587000D02*
X123670000Y-87960000D01*
X123670000Y-90040000D02*
X123670000Y-91413000D01*
X123710000Y-86602000D02*
X123710000Y-87960000D01*
X123710000Y-90040000D02*
X123710000Y-91398000D01*
X123750000Y-86618000D02*
X123750000Y-87960000D01*
X123750000Y-90040000D02*
X123750000Y-91382000D01*
X123790000Y-86635000D02*
X123790000Y-87960000D01*
X123790000Y-90040000D02*
X123790000Y-91365000D01*
X123830000Y-86653000D02*
X123830000Y-87960000D01*
X123830000Y-90040000D02*
X123830000Y-91347000D01*
X123870000Y-86671000D02*
X123870000Y-87960000D01*
X123870000Y-90040000D02*
X123870000Y-91329000D01*
X123910000Y-86691000D02*
X123910000Y-87960000D01*
X123910000Y-90040000D02*
X123910000Y-91309000D01*
X123950000Y-86711000D02*
X123950000Y-87960000D01*
X123950000Y-90040000D02*
X123950000Y-91289000D01*
X123990000Y-86732000D02*
X123990000Y-87960000D01*
X123990000Y-90040000D02*
X123990000Y-91268000D01*
X124030000Y-86754000D02*
X124030000Y-87960000D01*
X124030000Y-90040000D02*
X124030000Y-91246000D01*
X124070000Y-86777000D02*
X124070000Y-87960000D01*
X124070000Y-90040000D02*
X124070000Y-91223000D01*
X124110000Y-86801000D02*
X124110000Y-87960000D01*
X124110000Y-90040000D02*
X124110000Y-91199000D01*
X124150000Y-86825000D02*
X124150000Y-87960000D01*
X124150000Y-90040000D02*
X124150000Y-91175000D01*
X124190000Y-86851000D02*
X124190000Y-87960000D01*
X124190000Y-90040000D02*
X124190000Y-91149000D01*
X124230000Y-86878000D02*
X124230000Y-87960000D01*
X124230000Y-90040000D02*
X124230000Y-91122000D01*
X124270000Y-86906000D02*
X124270000Y-87960000D01*
X124270000Y-90040000D02*
X124270000Y-91094000D01*
X124310000Y-86935000D02*
X124310000Y-87960000D01*
X124310000Y-90040000D02*
X124310000Y-91065000D01*
X124350000Y-86965000D02*
X124350000Y-87960000D01*
X124350000Y-90040000D02*
X124350000Y-91035000D01*
X124390000Y-86997000D02*
X124390000Y-87960000D01*
X124390000Y-90040000D02*
X124390000Y-91003000D01*
X124430000Y-87030000D02*
X124430000Y-87960000D01*
X124430000Y-90040000D02*
X124430000Y-90970000D01*
X124470000Y-87064000D02*
X124470000Y-87960000D01*
X124470000Y-90040000D02*
X124470000Y-90936000D01*
X124510000Y-87099000D02*
X124510000Y-87960000D01*
X124510000Y-90040000D02*
X124510000Y-90901000D01*
X124550000Y-87136000D02*
X124550000Y-87960000D01*
X124550000Y-90040000D02*
X124550000Y-90864000D01*
X124590000Y-87175000D02*
X124590000Y-87960000D01*
X124590000Y-90040000D02*
X124590000Y-90825000D01*
X124630000Y-87215000D02*
X124630000Y-87960000D01*
X124630000Y-90040000D02*
X124630000Y-90785000D01*
X124670000Y-87257000D02*
X124670000Y-87960000D01*
X124670000Y-90040000D02*
X124670000Y-90743000D01*
X124710000Y-87301000D02*
X124710000Y-87960000D01*
X124710000Y-90040000D02*
X124710000Y-90699000D01*
X124750000Y-87348000D02*
X124750000Y-87960000D01*
X124750000Y-90040000D02*
X124750000Y-90652000D01*
X124790000Y-87396000D02*
X124790000Y-87960000D01*
X124790000Y-90040000D02*
X124790000Y-90604000D01*
X124830000Y-87447000D02*
X124830000Y-87960000D01*
X124830000Y-90040000D02*
X124830000Y-90553000D01*
X124870000Y-87501000D02*
X124870000Y-87960000D01*
X124870000Y-90040000D02*
X124870000Y-90499000D01*
X124910000Y-87557000D02*
X124910000Y-87960000D01*
X124910000Y-90040000D02*
X124910000Y-90443000D01*
X124950000Y-87617000D02*
X124950000Y-87960000D01*
X124950000Y-90040000D02*
X124950000Y-90383000D01*
X124990000Y-87681000D02*
X124990000Y-87960000D01*
X124990000Y-90040000D02*
X124990000Y-90319000D01*
X125030000Y-87749000D02*
X125030000Y-87960000D01*
X125030000Y-90040000D02*
X125030000Y-90251000D01*
X125070000Y-87823000D02*
X125070000Y-90177000D01*
X125110000Y-87902000D02*
X125110000Y-90098000D01*
X125150000Y-87989000D02*
X125150000Y-90011000D01*
X125190000Y-88086000D02*
X125190000Y-89914000D01*
X125230000Y-88195000D02*
X125230000Y-89805000D01*
X125270000Y-88323000D02*
X125270000Y-89677000D01*
X125310000Y-88483000D02*
X125310000Y-89517000D01*
X125350000Y-88717000D02*
X125350000Y-89283000D01*
X125370000Y-89000000D02*
G75*
G02*
X120130000Y-89000000I-2620000J0D01*
G01*
X120130000Y-89000000D02*
G75*
G02*
X125370000Y-89000000I2620000J0D01*
G01*
%TO.C,C8*%
X126445225Y-87525000D02*
X126945225Y-87525000D01*
X126695225Y-87275000D02*
X126695225Y-87775000D01*
X129250000Y-86420000D02*
X129250000Y-91580000D01*
X129290000Y-86420000D02*
X129290000Y-91580000D01*
X129330000Y-86421000D02*
X129330000Y-91579000D01*
X129370000Y-86423000D02*
X129370000Y-91577000D01*
X129410000Y-86425000D02*
X129410000Y-91575000D01*
X129450000Y-86428000D02*
X129450000Y-91572000D01*
X129490000Y-86431000D02*
X129490000Y-87960000D01*
X129490000Y-90040000D02*
X129490000Y-91569000D01*
X129530000Y-86435000D02*
X129530000Y-87960000D01*
X129530000Y-90040000D02*
X129530000Y-91565000D01*
X129570000Y-86440000D02*
X129570000Y-87960000D01*
X129570000Y-90040000D02*
X129570000Y-91560000D01*
X129610000Y-86445000D02*
X129610000Y-87960000D01*
X129610000Y-90040000D02*
X129610000Y-91555000D01*
X129650000Y-86451000D02*
X129650000Y-87960000D01*
X129650000Y-90040000D02*
X129650000Y-91549000D01*
X129690000Y-86457000D02*
X129690000Y-87960000D01*
X129690000Y-90040000D02*
X129690000Y-91543000D01*
X129730000Y-86464000D02*
X129730000Y-87960000D01*
X129730000Y-90040000D02*
X129730000Y-91536000D01*
X129770000Y-86472000D02*
X129770000Y-87960000D01*
X129770000Y-90040000D02*
X129770000Y-91528000D01*
X129810000Y-86481000D02*
X129810000Y-87960000D01*
X129810000Y-90040000D02*
X129810000Y-91519000D01*
X129850000Y-86490000D02*
X129850000Y-87960000D01*
X129850000Y-90040000D02*
X129850000Y-91510000D01*
X129890000Y-86499000D02*
X129890000Y-87960000D01*
X129890000Y-90040000D02*
X129890000Y-91501000D01*
X129930000Y-86510000D02*
X129930000Y-87960000D01*
X129930000Y-90040000D02*
X129930000Y-91490000D01*
X129970000Y-86521000D02*
X129970000Y-87960000D01*
X129970000Y-90040000D02*
X129970000Y-91479000D01*
X130010000Y-86533000D02*
X130010000Y-87960000D01*
X130010000Y-90040000D02*
X130010000Y-91467000D01*
X130050000Y-86545000D02*
X130050000Y-87960000D01*
X130050000Y-90040000D02*
X130050000Y-91455000D01*
X130090000Y-86558000D02*
X130090000Y-87960000D01*
X130090000Y-90040000D02*
X130090000Y-91442000D01*
X130130000Y-86572000D02*
X130130000Y-87960000D01*
X130130000Y-90040000D02*
X130130000Y-91428000D01*
X130170000Y-86587000D02*
X130170000Y-87960000D01*
X130170000Y-90040000D02*
X130170000Y-91413000D01*
X130210000Y-86602000D02*
X130210000Y-87960000D01*
X130210000Y-90040000D02*
X130210000Y-91398000D01*
X130250000Y-86618000D02*
X130250000Y-87960000D01*
X130250000Y-90040000D02*
X130250000Y-91382000D01*
X130290000Y-86635000D02*
X130290000Y-87960000D01*
X130290000Y-90040000D02*
X130290000Y-91365000D01*
X130330000Y-86653000D02*
X130330000Y-87960000D01*
X130330000Y-90040000D02*
X130330000Y-91347000D01*
X130370000Y-86671000D02*
X130370000Y-87960000D01*
X130370000Y-90040000D02*
X130370000Y-91329000D01*
X130410000Y-86691000D02*
X130410000Y-87960000D01*
X130410000Y-90040000D02*
X130410000Y-91309000D01*
X130450000Y-86711000D02*
X130450000Y-87960000D01*
X130450000Y-90040000D02*
X130450000Y-91289000D01*
X130490000Y-86732000D02*
X130490000Y-87960000D01*
X130490000Y-90040000D02*
X130490000Y-91268000D01*
X130530000Y-86754000D02*
X130530000Y-87960000D01*
X130530000Y-90040000D02*
X130530000Y-91246000D01*
X130570000Y-86777000D02*
X130570000Y-87960000D01*
X130570000Y-90040000D02*
X130570000Y-91223000D01*
X130610000Y-86801000D02*
X130610000Y-87960000D01*
X130610000Y-90040000D02*
X130610000Y-91199000D01*
X130650000Y-86825000D02*
X130650000Y-87960000D01*
X130650000Y-90040000D02*
X130650000Y-91175000D01*
X130690000Y-86851000D02*
X130690000Y-87960000D01*
X130690000Y-90040000D02*
X130690000Y-91149000D01*
X130730000Y-86878000D02*
X130730000Y-87960000D01*
X130730000Y-90040000D02*
X130730000Y-91122000D01*
X130770000Y-86906000D02*
X130770000Y-87960000D01*
X130770000Y-90040000D02*
X130770000Y-91094000D01*
X130810000Y-86935000D02*
X130810000Y-87960000D01*
X130810000Y-90040000D02*
X130810000Y-91065000D01*
X130850000Y-86965000D02*
X130850000Y-87960000D01*
X130850000Y-90040000D02*
X130850000Y-91035000D01*
X130890000Y-86997000D02*
X130890000Y-87960000D01*
X130890000Y-90040000D02*
X130890000Y-91003000D01*
X130930000Y-87030000D02*
X130930000Y-87960000D01*
X130930000Y-90040000D02*
X130930000Y-90970000D01*
X130970000Y-87064000D02*
X130970000Y-87960000D01*
X130970000Y-90040000D02*
X130970000Y-90936000D01*
X131010000Y-87099000D02*
X131010000Y-87960000D01*
X131010000Y-90040000D02*
X131010000Y-90901000D01*
X131050000Y-87136000D02*
X131050000Y-87960000D01*
X131050000Y-90040000D02*
X131050000Y-90864000D01*
X131090000Y-87175000D02*
X131090000Y-87960000D01*
X131090000Y-90040000D02*
X131090000Y-90825000D01*
X131130000Y-87215000D02*
X131130000Y-87960000D01*
X131130000Y-90040000D02*
X131130000Y-90785000D01*
X131170000Y-87257000D02*
X131170000Y-87960000D01*
X131170000Y-90040000D02*
X131170000Y-90743000D01*
X131210000Y-87301000D02*
X131210000Y-87960000D01*
X131210000Y-90040000D02*
X131210000Y-90699000D01*
X131250000Y-87348000D02*
X131250000Y-87960000D01*
X131250000Y-90040000D02*
X131250000Y-90652000D01*
X131290000Y-87396000D02*
X131290000Y-87960000D01*
X131290000Y-90040000D02*
X131290000Y-90604000D01*
X131330000Y-87447000D02*
X131330000Y-87960000D01*
X131330000Y-90040000D02*
X131330000Y-90553000D01*
X131370000Y-87501000D02*
X131370000Y-87960000D01*
X131370000Y-90040000D02*
X131370000Y-90499000D01*
X131410000Y-87557000D02*
X131410000Y-87960000D01*
X131410000Y-90040000D02*
X131410000Y-90443000D01*
X131450000Y-87617000D02*
X131450000Y-87960000D01*
X131450000Y-90040000D02*
X131450000Y-90383000D01*
X131490000Y-87681000D02*
X131490000Y-87960000D01*
X131490000Y-90040000D02*
X131490000Y-90319000D01*
X131530000Y-87749000D02*
X131530000Y-87960000D01*
X131530000Y-90040000D02*
X131530000Y-90251000D01*
X131570000Y-87823000D02*
X131570000Y-90177000D01*
X131610000Y-87902000D02*
X131610000Y-90098000D01*
X131650000Y-87989000D02*
X131650000Y-90011000D01*
X131690000Y-88086000D02*
X131690000Y-89914000D01*
X131730000Y-88195000D02*
X131730000Y-89805000D01*
X131770000Y-88323000D02*
X131770000Y-89677000D01*
X131810000Y-88483000D02*
X131810000Y-89517000D01*
X131850000Y-88717000D02*
X131850000Y-89283000D01*
X131870000Y-89000000D02*
G75*
G02*
X126630000Y-89000000I-2620000J0D01*
G01*
X126630000Y-89000000D02*
G75*
G02*
X131870000Y-89000000I2620000J0D01*
G01*
%TO.C,R1*%
X149127836Y-69640000D02*
X148912164Y-69640000D01*
X149127836Y-70360000D02*
X148912164Y-70360000D01*
%TO.C,C7*%
X137945225Y-82025000D02*
X138445225Y-82025000D01*
X138195225Y-81775000D02*
X138195225Y-82275000D01*
X140750000Y-80920000D02*
X140750000Y-86080000D01*
X140790000Y-80920000D02*
X140790000Y-86080000D01*
X140830000Y-80921000D02*
X140830000Y-86079000D01*
X140870000Y-80923000D02*
X140870000Y-86077000D01*
X140910000Y-80925000D02*
X140910000Y-86075000D01*
X140950000Y-80928000D02*
X140950000Y-86072000D01*
X140990000Y-80931000D02*
X140990000Y-82460000D01*
X140990000Y-84540000D02*
X140990000Y-86069000D01*
X141030000Y-80935000D02*
X141030000Y-82460000D01*
X141030000Y-84540000D02*
X141030000Y-86065000D01*
X141070000Y-80940000D02*
X141070000Y-82460000D01*
X141070000Y-84540000D02*
X141070000Y-86060000D01*
X141110000Y-80945000D02*
X141110000Y-82460000D01*
X141110000Y-84540000D02*
X141110000Y-86055000D01*
X141150000Y-80951000D02*
X141150000Y-82460000D01*
X141150000Y-84540000D02*
X141150000Y-86049000D01*
X141190000Y-80957000D02*
X141190000Y-82460000D01*
X141190000Y-84540000D02*
X141190000Y-86043000D01*
X141230000Y-80964000D02*
X141230000Y-82460000D01*
X141230000Y-84540000D02*
X141230000Y-86036000D01*
X141270000Y-80972000D02*
X141270000Y-82460000D01*
X141270000Y-84540000D02*
X141270000Y-86028000D01*
X141310000Y-80981000D02*
X141310000Y-82460000D01*
X141310000Y-84540000D02*
X141310000Y-86019000D01*
X141350000Y-80990000D02*
X141350000Y-82460000D01*
X141350000Y-84540000D02*
X141350000Y-86010000D01*
X141390000Y-80999000D02*
X141390000Y-82460000D01*
X141390000Y-84540000D02*
X141390000Y-86001000D01*
X141430000Y-81010000D02*
X141430000Y-82460000D01*
X141430000Y-84540000D02*
X141430000Y-85990000D01*
X141470000Y-81021000D02*
X141470000Y-82460000D01*
X141470000Y-84540000D02*
X141470000Y-85979000D01*
X141510000Y-81033000D02*
X141510000Y-82460000D01*
X141510000Y-84540000D02*
X141510000Y-85967000D01*
X141550000Y-81045000D02*
X141550000Y-82460000D01*
X141550000Y-84540000D02*
X141550000Y-85955000D01*
X141590000Y-81058000D02*
X141590000Y-82460000D01*
X141590000Y-84540000D02*
X141590000Y-85942000D01*
X141630000Y-81072000D02*
X141630000Y-82460000D01*
X141630000Y-84540000D02*
X141630000Y-85928000D01*
X141670000Y-81087000D02*
X141670000Y-82460000D01*
X141670000Y-84540000D02*
X141670000Y-85913000D01*
X141710000Y-81102000D02*
X141710000Y-82460000D01*
X141710000Y-84540000D02*
X141710000Y-85898000D01*
X141750000Y-81118000D02*
X141750000Y-82460000D01*
X141750000Y-84540000D02*
X141750000Y-85882000D01*
X141790000Y-81135000D02*
X141790000Y-82460000D01*
X141790000Y-84540000D02*
X141790000Y-85865000D01*
X141830000Y-81153000D02*
X141830000Y-82460000D01*
X141830000Y-84540000D02*
X141830000Y-85847000D01*
X141870000Y-81171000D02*
X141870000Y-82460000D01*
X141870000Y-84540000D02*
X141870000Y-85829000D01*
X141910000Y-81191000D02*
X141910000Y-82460000D01*
X141910000Y-84540000D02*
X141910000Y-85809000D01*
X141950000Y-81211000D02*
X141950000Y-82460000D01*
X141950000Y-84540000D02*
X141950000Y-85789000D01*
X141990000Y-81232000D02*
X141990000Y-82460000D01*
X141990000Y-84540000D02*
X141990000Y-85768000D01*
X142030000Y-81254000D02*
X142030000Y-82460000D01*
X142030000Y-84540000D02*
X142030000Y-85746000D01*
X142070000Y-81277000D02*
X142070000Y-82460000D01*
X142070000Y-84540000D02*
X142070000Y-85723000D01*
X142110000Y-81301000D02*
X142110000Y-82460000D01*
X142110000Y-84540000D02*
X142110000Y-85699000D01*
X142150000Y-81325000D02*
X142150000Y-82460000D01*
X142150000Y-84540000D02*
X142150000Y-85675000D01*
X142190000Y-81351000D02*
X142190000Y-82460000D01*
X142190000Y-84540000D02*
X142190000Y-85649000D01*
X142230000Y-81378000D02*
X142230000Y-82460000D01*
X142230000Y-84540000D02*
X142230000Y-85622000D01*
X142270000Y-81406000D02*
X142270000Y-82460000D01*
X142270000Y-84540000D02*
X142270000Y-85594000D01*
X142310000Y-81435000D02*
X142310000Y-82460000D01*
X142310000Y-84540000D02*
X142310000Y-85565000D01*
X142350000Y-81465000D02*
X142350000Y-82460000D01*
X142350000Y-84540000D02*
X142350000Y-85535000D01*
X142390000Y-81497000D02*
X142390000Y-82460000D01*
X142390000Y-84540000D02*
X142390000Y-85503000D01*
X142430000Y-81530000D02*
X142430000Y-82460000D01*
X142430000Y-84540000D02*
X142430000Y-85470000D01*
X142470000Y-81564000D02*
X142470000Y-82460000D01*
X142470000Y-84540000D02*
X142470000Y-85436000D01*
X142510000Y-81599000D02*
X142510000Y-82460000D01*
X142510000Y-84540000D02*
X142510000Y-85401000D01*
X142550000Y-81636000D02*
X142550000Y-82460000D01*
X142550000Y-84540000D02*
X142550000Y-85364000D01*
X142590000Y-81675000D02*
X142590000Y-82460000D01*
X142590000Y-84540000D02*
X142590000Y-85325000D01*
X142630000Y-81715000D02*
X142630000Y-82460000D01*
X142630000Y-84540000D02*
X142630000Y-85285000D01*
X142670000Y-81757000D02*
X142670000Y-82460000D01*
X142670000Y-84540000D02*
X142670000Y-85243000D01*
X142710000Y-81801000D02*
X142710000Y-82460000D01*
X142710000Y-84540000D02*
X142710000Y-85199000D01*
X142750000Y-81848000D02*
X142750000Y-82460000D01*
X142750000Y-84540000D02*
X142750000Y-85152000D01*
X142790000Y-81896000D02*
X142790000Y-82460000D01*
X142790000Y-84540000D02*
X142790000Y-85104000D01*
X142830000Y-81947000D02*
X142830000Y-82460000D01*
X142830000Y-84540000D02*
X142830000Y-85053000D01*
X142870000Y-82001000D02*
X142870000Y-82460000D01*
X142870000Y-84540000D02*
X142870000Y-84999000D01*
X142910000Y-82057000D02*
X142910000Y-82460000D01*
X142910000Y-84540000D02*
X142910000Y-84943000D01*
X142950000Y-82117000D02*
X142950000Y-82460000D01*
X142950000Y-84540000D02*
X142950000Y-84883000D01*
X142990000Y-82181000D02*
X142990000Y-82460000D01*
X142990000Y-84540000D02*
X142990000Y-84819000D01*
X143030000Y-82249000D02*
X143030000Y-82460000D01*
X143030000Y-84540000D02*
X143030000Y-84751000D01*
X143070000Y-82323000D02*
X143070000Y-84677000D01*
X143110000Y-82402000D02*
X143110000Y-84598000D01*
X143150000Y-82489000D02*
X143150000Y-84511000D01*
X143190000Y-82586000D02*
X143190000Y-84414000D01*
X143230000Y-82695000D02*
X143230000Y-84305000D01*
X143270000Y-82823000D02*
X143270000Y-84177000D01*
X143310000Y-82983000D02*
X143310000Y-84017000D01*
X143350000Y-83217000D02*
X143350000Y-83783000D01*
X143370000Y-83500000D02*
G75*
G02*
X138130000Y-83500000I-2620000J0D01*
G01*
X138130000Y-83500000D02*
G75*
G02*
X143370000Y-83500000I2620000J0D01*
G01*
%TO.C,U1*%
X147650000Y-79590000D02*
X151410000Y-79590000D01*
X147650000Y-86410000D02*
X151410000Y-86410000D01*
X151410000Y-79590000D02*
X151410000Y-80850000D01*
X151410000Y-86410000D02*
X151410000Y-85150000D01*
X146370000Y-79690000D02*
X146130000Y-79360000D01*
X146610000Y-79360000D01*
X146370000Y-79690000D01*
G36*
X146370000Y-79690000D02*
G01*
X146130000Y-79360000D01*
X146610000Y-79360000D01*
X146370000Y-79690000D01*
G37*
%TO.C,R2*%
X149087836Y-72640000D02*
X148872164Y-72640000D01*
X149087836Y-73360000D02*
X148872164Y-73360000D01*
%TO.C,C3*%
X138740113Y-94025000D02*
X139240113Y-94025000D01*
X138990113Y-93775000D02*
X138990113Y-94275000D01*
X141544888Y-92920000D02*
X141544888Y-98080000D01*
X141584888Y-92920000D02*
X141584888Y-98080000D01*
X141624888Y-92921000D02*
X141624888Y-98079000D01*
X141664888Y-92923000D02*
X141664888Y-98077000D01*
X141704888Y-92925000D02*
X141704888Y-98075000D01*
X141744888Y-92928000D02*
X141744888Y-98072000D01*
X141784888Y-92931000D02*
X141784888Y-94460000D01*
X141784888Y-96540000D02*
X141784888Y-98069000D01*
X141824888Y-92935000D02*
X141824888Y-94460000D01*
X141824888Y-96540000D02*
X141824888Y-98065000D01*
X141864888Y-92940000D02*
X141864888Y-94460000D01*
X141864888Y-96540000D02*
X141864888Y-98060000D01*
X141904888Y-92945000D02*
X141904888Y-94460000D01*
X141904888Y-96540000D02*
X141904888Y-98055000D01*
X141944888Y-92951000D02*
X141944888Y-94460000D01*
X141944888Y-96540000D02*
X141944888Y-98049000D01*
X141984888Y-92957000D02*
X141984888Y-94460000D01*
X141984888Y-96540000D02*
X141984888Y-98043000D01*
X142024888Y-92964000D02*
X142024888Y-94460000D01*
X142024888Y-96540000D02*
X142024888Y-98036000D01*
X142064888Y-92972000D02*
X142064888Y-94460000D01*
X142064888Y-96540000D02*
X142064888Y-98028000D01*
X142104888Y-92981000D02*
X142104888Y-94460000D01*
X142104888Y-96540000D02*
X142104888Y-98019000D01*
X142144888Y-92990000D02*
X142144888Y-94460000D01*
X142144888Y-96540000D02*
X142144888Y-98010000D01*
X142184888Y-92999000D02*
X142184888Y-94460000D01*
X142184888Y-96540000D02*
X142184888Y-98001000D01*
X142224888Y-93010000D02*
X142224888Y-94460000D01*
X142224888Y-96540000D02*
X142224888Y-97990000D01*
X142264888Y-93021000D02*
X142264888Y-94460000D01*
X142264888Y-96540000D02*
X142264888Y-97979000D01*
X142304888Y-93033000D02*
X142304888Y-94460000D01*
X142304888Y-96540000D02*
X142304888Y-97967000D01*
X142344888Y-93045000D02*
X142344888Y-94460000D01*
X142344888Y-96540000D02*
X142344888Y-97955000D01*
X142384888Y-93058000D02*
X142384888Y-94460000D01*
X142384888Y-96540000D02*
X142384888Y-97942000D01*
X142424888Y-93072000D02*
X142424888Y-94460000D01*
X142424888Y-96540000D02*
X142424888Y-97928000D01*
X142464888Y-93087000D02*
X142464888Y-94460000D01*
X142464888Y-96540000D02*
X142464888Y-97913000D01*
X142504888Y-93102000D02*
X142504888Y-94460000D01*
X142504888Y-96540000D02*
X142504888Y-97898000D01*
X142544888Y-93118000D02*
X142544888Y-94460000D01*
X142544888Y-96540000D02*
X142544888Y-97882000D01*
X142584888Y-93135000D02*
X142584888Y-94460000D01*
X142584888Y-96540000D02*
X142584888Y-97865000D01*
X142624888Y-93153000D02*
X142624888Y-94460000D01*
X142624888Y-96540000D02*
X142624888Y-97847000D01*
X142664888Y-93171000D02*
X142664888Y-94460000D01*
X142664888Y-96540000D02*
X142664888Y-97829000D01*
X142704888Y-93191000D02*
X142704888Y-94460000D01*
X142704888Y-96540000D02*
X142704888Y-97809000D01*
X142744888Y-93211000D02*
X142744888Y-94460000D01*
X142744888Y-96540000D02*
X142744888Y-97789000D01*
X142784888Y-93232000D02*
X142784888Y-94460000D01*
X142784888Y-96540000D02*
X142784888Y-97768000D01*
X142824888Y-93254000D02*
X142824888Y-94460000D01*
X142824888Y-96540000D02*
X142824888Y-97746000D01*
X142864888Y-93277000D02*
X142864888Y-94460000D01*
X142864888Y-96540000D02*
X142864888Y-97723000D01*
X142904888Y-93301000D02*
X142904888Y-94460000D01*
X142904888Y-96540000D02*
X142904888Y-97699000D01*
X142944888Y-93325000D02*
X142944888Y-94460000D01*
X142944888Y-96540000D02*
X142944888Y-97675000D01*
X142984888Y-93351000D02*
X142984888Y-94460000D01*
X142984888Y-96540000D02*
X142984888Y-97649000D01*
X143024888Y-93378000D02*
X143024888Y-94460000D01*
X143024888Y-96540000D02*
X143024888Y-97622000D01*
X143064888Y-93406000D02*
X143064888Y-94460000D01*
X143064888Y-96540000D02*
X143064888Y-97594000D01*
X143104888Y-93435000D02*
X143104888Y-94460000D01*
X143104888Y-96540000D02*
X143104888Y-97565000D01*
X143144888Y-93465000D02*
X143144888Y-94460000D01*
X143144888Y-96540000D02*
X143144888Y-97535000D01*
X143184888Y-93497000D02*
X143184888Y-94460000D01*
X143184888Y-96540000D02*
X143184888Y-97503000D01*
X143224888Y-93530000D02*
X143224888Y-94460000D01*
X143224888Y-96540000D02*
X143224888Y-97470000D01*
X143264888Y-93564000D02*
X143264888Y-94460000D01*
X143264888Y-96540000D02*
X143264888Y-97436000D01*
X143304888Y-93599000D02*
X143304888Y-94460000D01*
X143304888Y-96540000D02*
X143304888Y-97401000D01*
X143344888Y-93636000D02*
X143344888Y-94460000D01*
X143344888Y-96540000D02*
X143344888Y-97364000D01*
X143384888Y-93675000D02*
X143384888Y-94460000D01*
X143384888Y-96540000D02*
X143384888Y-97325000D01*
X143424888Y-93715000D02*
X143424888Y-94460000D01*
X143424888Y-96540000D02*
X143424888Y-97285000D01*
X143464888Y-93757000D02*
X143464888Y-94460000D01*
X143464888Y-96540000D02*
X143464888Y-97243000D01*
X143504888Y-93801000D02*
X143504888Y-94460000D01*
X143504888Y-96540000D02*
X143504888Y-97199000D01*
X143544888Y-93848000D02*
X143544888Y-94460000D01*
X143544888Y-96540000D02*
X143544888Y-97152000D01*
X143584888Y-93896000D02*
X143584888Y-94460000D01*
X143584888Y-96540000D02*
X143584888Y-97104000D01*
X143624888Y-93947000D02*
X143624888Y-94460000D01*
X143624888Y-96540000D02*
X143624888Y-97053000D01*
X143664888Y-94001000D02*
X143664888Y-94460000D01*
X143664888Y-96540000D02*
X143664888Y-96999000D01*
X143704888Y-94057000D02*
X143704888Y-94460000D01*
X143704888Y-96540000D02*
X143704888Y-96943000D01*
X143744888Y-94117000D02*
X143744888Y-94460000D01*
X143744888Y-96540000D02*
X143744888Y-96883000D01*
X143784888Y-94181000D02*
X143784888Y-94460000D01*
X143784888Y-96540000D02*
X143784888Y-96819000D01*
X143824888Y-94249000D02*
X143824888Y-94460000D01*
X143824888Y-96540000D02*
X143824888Y-96751000D01*
X143864888Y-94323000D02*
X143864888Y-96677000D01*
X143904888Y-94402000D02*
X143904888Y-96598000D01*
X143944888Y-94489000D02*
X143944888Y-96511000D01*
X143984888Y-94586000D02*
X143984888Y-96414000D01*
X144024888Y-94695000D02*
X144024888Y-96305000D01*
X144064888Y-94823000D02*
X144064888Y-96177000D01*
X144104888Y-94983000D02*
X144104888Y-96017000D01*
X144144888Y-95217000D02*
X144144888Y-95783000D01*
X144164888Y-95500000D02*
G75*
G02*
X138924888Y-95500000I-2620000J0D01*
G01*
X138924888Y-95500000D02*
G75*
G02*
X144164888Y-95500000I2620000J0D01*
G01*
%TO.C,J1*%
D14*
X86420000Y-59600000D02*
X86420000Y-63710000D01*
X86420000Y-63710000D02*
X92420000Y-63710000D01*
X86420000Y-65760000D02*
X92420000Y-65760000D01*
X86420000Y-82510000D02*
X86420000Y-65760000D01*
X86420000Y-88710000D02*
X86420000Y-84600000D01*
X92420000Y-58740000D02*
X104920000Y-58740000D01*
X92420000Y-59570000D02*
X86420000Y-59570000D01*
X92420000Y-82510000D02*
X86420000Y-82510000D01*
X92420000Y-84570000D02*
X86420000Y-84570000D01*
X92420000Y-88710000D02*
X86420000Y-88710000D01*
X92420000Y-89540000D02*
X92420000Y-58740000D01*
X104920000Y-58740000D02*
X104920000Y-89540000D01*
X104920000Y-89540000D02*
X92420000Y-89540000D01*
D12*
X104950000Y-58740000D02*
G75*
G02*
X104890000Y-58740000I-30000J0D01*
G01*
X104890000Y-58740000D02*
G75*
G02*
X104950000Y-58740000I30000J0D01*
G01*
%TO.C,R3*%
D13*
X121165000Y-95725000D02*
X122275000Y-95725000D01*
X133525000Y-95725000D02*
X132415000Y-95725000D01*
X122275000Y-93805000D02*
X132415000Y-93805000D01*
X132415000Y-97645000D01*
X122275000Y-97645000D01*
X122275000Y-93805000D01*
%TO.C,C1*%
X114240113Y-87525000D02*
X114740113Y-87525000D01*
X114490113Y-87275000D02*
X114490113Y-87775000D01*
X117044888Y-86420000D02*
X117044888Y-91580000D01*
X117084888Y-86420000D02*
X117084888Y-91580000D01*
X117124888Y-86421000D02*
X117124888Y-91579000D01*
X117164888Y-86423000D02*
X117164888Y-91577000D01*
X117204888Y-86425000D02*
X117204888Y-91575000D01*
X117244888Y-86428000D02*
X117244888Y-91572000D01*
X117284888Y-86431000D02*
X117284888Y-87960000D01*
X117284888Y-90040000D02*
X117284888Y-91569000D01*
X117324888Y-86435000D02*
X117324888Y-87960000D01*
X117324888Y-90040000D02*
X117324888Y-91565000D01*
X117364888Y-86440000D02*
X117364888Y-87960000D01*
X117364888Y-90040000D02*
X117364888Y-91560000D01*
X117404888Y-86445000D02*
X117404888Y-87960000D01*
X117404888Y-90040000D02*
X117404888Y-91555000D01*
X117444888Y-86451000D02*
X117444888Y-87960000D01*
X117444888Y-90040000D02*
X117444888Y-91549000D01*
X117484888Y-86457000D02*
X117484888Y-87960000D01*
X117484888Y-90040000D02*
X117484888Y-91543000D01*
X117524888Y-86464000D02*
X117524888Y-87960000D01*
X117524888Y-90040000D02*
X117524888Y-91536000D01*
X117564888Y-86472000D02*
X117564888Y-87960000D01*
X117564888Y-90040000D02*
X117564888Y-91528000D01*
X117604888Y-86481000D02*
X117604888Y-87960000D01*
X117604888Y-90040000D02*
X117604888Y-91519000D01*
X117644888Y-86490000D02*
X117644888Y-87960000D01*
X117644888Y-90040000D02*
X117644888Y-91510000D01*
X117684888Y-86499000D02*
X117684888Y-87960000D01*
X117684888Y-90040000D02*
X117684888Y-91501000D01*
X117724888Y-86510000D02*
X117724888Y-87960000D01*
X117724888Y-90040000D02*
X117724888Y-91490000D01*
X117764888Y-86521000D02*
X117764888Y-87960000D01*
X117764888Y-90040000D02*
X117764888Y-91479000D01*
X117804888Y-86533000D02*
X117804888Y-87960000D01*
X117804888Y-90040000D02*
X117804888Y-91467000D01*
X117844888Y-86545000D02*
X117844888Y-87960000D01*
X117844888Y-90040000D02*
X117844888Y-91455000D01*
X117884888Y-86558000D02*
X117884888Y-87960000D01*
X117884888Y-90040000D02*
X117884888Y-91442000D01*
X117924888Y-86572000D02*
X117924888Y-87960000D01*
X117924888Y-90040000D02*
X117924888Y-91428000D01*
X117964888Y-86587000D02*
X117964888Y-87960000D01*
X117964888Y-90040000D02*
X117964888Y-91413000D01*
X118004888Y-86602000D02*
X118004888Y-87960000D01*
X118004888Y-90040000D02*
X118004888Y-91398000D01*
X118044888Y-86618000D02*
X118044888Y-87960000D01*
X118044888Y-90040000D02*
X118044888Y-91382000D01*
X118084888Y-86635000D02*
X118084888Y-87960000D01*
X118084888Y-90040000D02*
X118084888Y-91365000D01*
X118124888Y-86653000D02*
X118124888Y-87960000D01*
X118124888Y-90040000D02*
X118124888Y-91347000D01*
X118164888Y-86671000D02*
X118164888Y-87960000D01*
X118164888Y-90040000D02*
X118164888Y-91329000D01*
X118204888Y-86691000D02*
X118204888Y-87960000D01*
X118204888Y-90040000D02*
X118204888Y-91309000D01*
X118244888Y-86711000D02*
X118244888Y-87960000D01*
X118244888Y-90040000D02*
X118244888Y-91289000D01*
X118284888Y-86732000D02*
X118284888Y-87960000D01*
X118284888Y-90040000D02*
X118284888Y-91268000D01*
X118324888Y-86754000D02*
X118324888Y-87960000D01*
X118324888Y-90040000D02*
X118324888Y-91246000D01*
X118364888Y-86777000D02*
X118364888Y-87960000D01*
X118364888Y-90040000D02*
X118364888Y-91223000D01*
X118404888Y-86801000D02*
X118404888Y-87960000D01*
X118404888Y-90040000D02*
X118404888Y-91199000D01*
X118444888Y-86825000D02*
X118444888Y-87960000D01*
X118444888Y-90040000D02*
X118444888Y-91175000D01*
X118484888Y-86851000D02*
X118484888Y-87960000D01*
X118484888Y-90040000D02*
X118484888Y-91149000D01*
X118524888Y-86878000D02*
X118524888Y-87960000D01*
X118524888Y-90040000D02*
X118524888Y-91122000D01*
X118564888Y-86906000D02*
X118564888Y-87960000D01*
X118564888Y-90040000D02*
X118564888Y-91094000D01*
X118604888Y-86935000D02*
X118604888Y-87960000D01*
X118604888Y-90040000D02*
X118604888Y-91065000D01*
X118644888Y-86965000D02*
X118644888Y-87960000D01*
X118644888Y-90040000D02*
X118644888Y-91035000D01*
X118684888Y-86997000D02*
X118684888Y-87960000D01*
X118684888Y-90040000D02*
X118684888Y-91003000D01*
X118724888Y-87030000D02*
X118724888Y-87960000D01*
X118724888Y-90040000D02*
X118724888Y-90970000D01*
X118764888Y-87064000D02*
X118764888Y-87960000D01*
X118764888Y-90040000D02*
X118764888Y-90936000D01*
X118804888Y-87099000D02*
X118804888Y-87960000D01*
X118804888Y-90040000D02*
X118804888Y-90901000D01*
X118844888Y-87136000D02*
X118844888Y-87960000D01*
X118844888Y-90040000D02*
X118844888Y-90864000D01*
X118884888Y-87175000D02*
X118884888Y-87960000D01*
X118884888Y-90040000D02*
X118884888Y-90825000D01*
X118924888Y-87215000D02*
X118924888Y-87960000D01*
X118924888Y-90040000D02*
X118924888Y-90785000D01*
X118964888Y-87257000D02*
X118964888Y-87960000D01*
X118964888Y-90040000D02*
X118964888Y-90743000D01*
X119004888Y-87301000D02*
X119004888Y-87960000D01*
X119004888Y-90040000D02*
X119004888Y-90699000D01*
X119044888Y-87348000D02*
X119044888Y-87960000D01*
X119044888Y-90040000D02*
X119044888Y-90652000D01*
X119084888Y-87396000D02*
X119084888Y-87960000D01*
X119084888Y-90040000D02*
X119084888Y-90604000D01*
X119124888Y-87447000D02*
X119124888Y-87960000D01*
X119124888Y-90040000D02*
X119124888Y-90553000D01*
X119164888Y-87501000D02*
X119164888Y-87960000D01*
X119164888Y-90040000D02*
X119164888Y-90499000D01*
X119204888Y-87557000D02*
X119204888Y-87960000D01*
X119204888Y-90040000D02*
X119204888Y-90443000D01*
X119244888Y-87617000D02*
X119244888Y-87960000D01*
X119244888Y-90040000D02*
X119244888Y-90383000D01*
X119284888Y-87681000D02*
X119284888Y-87960000D01*
X119284888Y-90040000D02*
X119284888Y-90319000D01*
X119324888Y-87749000D02*
X119324888Y-87960000D01*
X119324888Y-90040000D02*
X119324888Y-90251000D01*
X119364888Y-87823000D02*
X119364888Y-90177000D01*
X119404888Y-87902000D02*
X119404888Y-90098000D01*
X119444888Y-87989000D02*
X119444888Y-90011000D01*
X119484888Y-88086000D02*
X119484888Y-89914000D01*
X119524888Y-88195000D02*
X119524888Y-89805000D01*
X119564888Y-88323000D02*
X119564888Y-89677000D01*
X119604888Y-88483000D02*
X119604888Y-89517000D01*
X119644888Y-88717000D02*
X119644888Y-89283000D01*
X119664888Y-89000000D02*
G75*
G02*
X114424888Y-89000000I-2620000J0D01*
G01*
X114424888Y-89000000D02*
G75*
G02*
X119664888Y-89000000I2620000J0D01*
G01*
%TO.C,C5*%
X120240113Y-81025000D02*
X120740113Y-81025000D01*
X120490113Y-80775000D02*
X120490113Y-81275000D01*
X123044888Y-79920000D02*
X123044888Y-85080000D01*
X123084888Y-79920000D02*
X123084888Y-85080000D01*
X123124888Y-79921000D02*
X123124888Y-85079000D01*
X123164888Y-79923000D02*
X123164888Y-85077000D01*
X123204888Y-79925000D02*
X123204888Y-85075000D01*
X123244888Y-79928000D02*
X123244888Y-85072000D01*
X123284888Y-79931000D02*
X123284888Y-81460000D01*
X123284888Y-83540000D02*
X123284888Y-85069000D01*
X123324888Y-79935000D02*
X123324888Y-81460000D01*
X123324888Y-83540000D02*
X123324888Y-85065000D01*
X123364888Y-79940000D02*
X123364888Y-81460000D01*
X123364888Y-83540000D02*
X123364888Y-85060000D01*
X123404888Y-79945000D02*
X123404888Y-81460000D01*
X123404888Y-83540000D02*
X123404888Y-85055000D01*
X123444888Y-79951000D02*
X123444888Y-81460000D01*
X123444888Y-83540000D02*
X123444888Y-85049000D01*
X123484888Y-79957000D02*
X123484888Y-81460000D01*
X123484888Y-83540000D02*
X123484888Y-85043000D01*
X123524888Y-79964000D02*
X123524888Y-81460000D01*
X123524888Y-83540000D02*
X123524888Y-85036000D01*
X123564888Y-79972000D02*
X123564888Y-81460000D01*
X123564888Y-83540000D02*
X123564888Y-85028000D01*
X123604888Y-79981000D02*
X123604888Y-81460000D01*
X123604888Y-83540000D02*
X123604888Y-85019000D01*
X123644888Y-79990000D02*
X123644888Y-81460000D01*
X123644888Y-83540000D02*
X123644888Y-85010000D01*
X123684888Y-79999000D02*
X123684888Y-81460000D01*
X123684888Y-83540000D02*
X123684888Y-85001000D01*
X123724888Y-80010000D02*
X123724888Y-81460000D01*
X123724888Y-83540000D02*
X123724888Y-84990000D01*
X123764888Y-80021000D02*
X123764888Y-81460000D01*
X123764888Y-83540000D02*
X123764888Y-84979000D01*
X123804888Y-80033000D02*
X123804888Y-81460000D01*
X123804888Y-83540000D02*
X123804888Y-84967000D01*
X123844888Y-80045000D02*
X123844888Y-81460000D01*
X123844888Y-83540000D02*
X123844888Y-84955000D01*
X123884888Y-80058000D02*
X123884888Y-81460000D01*
X123884888Y-83540000D02*
X123884888Y-84942000D01*
X123924888Y-80072000D02*
X123924888Y-81460000D01*
X123924888Y-83540000D02*
X123924888Y-84928000D01*
X123964888Y-80087000D02*
X123964888Y-81460000D01*
X123964888Y-83540000D02*
X123964888Y-84913000D01*
X124004888Y-80102000D02*
X124004888Y-81460000D01*
X124004888Y-83540000D02*
X124004888Y-84898000D01*
X124044888Y-80118000D02*
X124044888Y-81460000D01*
X124044888Y-83540000D02*
X124044888Y-84882000D01*
X124084888Y-80135000D02*
X124084888Y-81460000D01*
X124084888Y-83540000D02*
X124084888Y-84865000D01*
X124124888Y-80153000D02*
X124124888Y-81460000D01*
X124124888Y-83540000D02*
X124124888Y-84847000D01*
X124164888Y-80171000D02*
X124164888Y-81460000D01*
X124164888Y-83540000D02*
X124164888Y-84829000D01*
X124204888Y-80191000D02*
X124204888Y-81460000D01*
X124204888Y-83540000D02*
X124204888Y-84809000D01*
X124244888Y-80211000D02*
X124244888Y-81460000D01*
X124244888Y-83540000D02*
X124244888Y-84789000D01*
X124284888Y-80232000D02*
X124284888Y-81460000D01*
X124284888Y-83540000D02*
X124284888Y-84768000D01*
X124324888Y-80254000D02*
X124324888Y-81460000D01*
X124324888Y-83540000D02*
X124324888Y-84746000D01*
X124364888Y-80277000D02*
X124364888Y-81460000D01*
X124364888Y-83540000D02*
X124364888Y-84723000D01*
X124404888Y-80301000D02*
X124404888Y-81460000D01*
X124404888Y-83540000D02*
X124404888Y-84699000D01*
X124444888Y-80325000D02*
X124444888Y-81460000D01*
X124444888Y-83540000D02*
X124444888Y-84675000D01*
X124484888Y-80351000D02*
X124484888Y-81460000D01*
X124484888Y-83540000D02*
X124484888Y-84649000D01*
X124524888Y-80378000D02*
X124524888Y-81460000D01*
X124524888Y-83540000D02*
X124524888Y-84622000D01*
X124564888Y-80406000D02*
X124564888Y-81460000D01*
X124564888Y-83540000D02*
X124564888Y-84594000D01*
X124604888Y-80435000D02*
X124604888Y-81460000D01*
X124604888Y-83540000D02*
X124604888Y-84565000D01*
X124644888Y-80465000D02*
X124644888Y-81460000D01*
X124644888Y-83540000D02*
X124644888Y-84535000D01*
X124684888Y-80497000D02*
X124684888Y-81460000D01*
X124684888Y-83540000D02*
X124684888Y-84503000D01*
X124724888Y-80530000D02*
X124724888Y-81460000D01*
X124724888Y-83540000D02*
X124724888Y-84470000D01*
X124764888Y-80564000D02*
X124764888Y-81460000D01*
X124764888Y-83540000D02*
X124764888Y-84436000D01*
X124804888Y-80599000D02*
X124804888Y-81460000D01*
X124804888Y-83540000D02*
X124804888Y-84401000D01*
X124844888Y-80636000D02*
X124844888Y-81460000D01*
X124844888Y-83540000D02*
X124844888Y-84364000D01*
X124884888Y-80675000D02*
X124884888Y-81460000D01*
X124884888Y-83540000D02*
X124884888Y-84325000D01*
X124924888Y-80715000D02*
X124924888Y-81460000D01*
X124924888Y-83540000D02*
X124924888Y-84285000D01*
X124964888Y-80757000D02*
X124964888Y-81460000D01*
X124964888Y-83540000D02*
X124964888Y-84243000D01*
X125004888Y-80801000D02*
X125004888Y-81460000D01*
X125004888Y-83540000D02*
X125004888Y-84199000D01*
X125044888Y-80848000D02*
X125044888Y-81460000D01*
X125044888Y-83540000D02*
X125044888Y-84152000D01*
X125084888Y-80896000D02*
X125084888Y-81460000D01*
X125084888Y-83540000D02*
X125084888Y-84104000D01*
X125124888Y-80947000D02*
X125124888Y-81460000D01*
X125124888Y-83540000D02*
X125124888Y-84053000D01*
X125164888Y-81001000D02*
X125164888Y-81460000D01*
X125164888Y-83540000D02*
X125164888Y-83999000D01*
X125204888Y-81057000D02*
X125204888Y-81460000D01*
X125204888Y-83540000D02*
X125204888Y-83943000D01*
X125244888Y-81117000D02*
X125244888Y-81460000D01*
X125244888Y-83540000D02*
X125244888Y-83883000D01*
X125284888Y-81181000D02*
X125284888Y-81460000D01*
X125284888Y-83540000D02*
X125284888Y-83819000D01*
X125324888Y-81249000D02*
X125324888Y-81460000D01*
X125324888Y-83540000D02*
X125324888Y-83751000D01*
X125364888Y-81323000D02*
X125364888Y-83677000D01*
X125404888Y-81402000D02*
X125404888Y-83598000D01*
X125444888Y-81489000D02*
X125444888Y-83511000D01*
X125484888Y-81586000D02*
X125484888Y-83414000D01*
X125524888Y-81695000D02*
X125524888Y-83305000D01*
X125564888Y-81823000D02*
X125564888Y-83177000D01*
X125604888Y-81983000D02*
X125604888Y-83017000D01*
X125644888Y-82217000D02*
X125644888Y-82783000D01*
X125664888Y-82500000D02*
G75*
G02*
X120424888Y-82500000I-2620000J0D01*
G01*
X120424888Y-82500000D02*
G75*
G02*
X125664888Y-82500000I2620000J0D01*
G01*
%TO.C,U2*%
X123415000Y-59165000D02*
X123415000Y-64975000D01*
X123415000Y-59165000D02*
X141635000Y-59165000D01*
X123415000Y-79085000D02*
X123415000Y-79385000D01*
X123415000Y-79385000D02*
X141635000Y-79385000D01*
X141635000Y-59165000D02*
X141635000Y-65665000D01*
X141635000Y-79085000D02*
X141635000Y-79385000D01*
X123425000Y-65675000D02*
X122925000Y-65675000D01*
X123425000Y-65175000D01*
X123425000Y-65675000D01*
G36*
X123425000Y-65675000D02*
G01*
X122925000Y-65675000D01*
X123425000Y-65175000D01*
X123425000Y-65675000D01*
G37*
%TO.C,C4*%
X112197671Y-97025000D02*
X112697671Y-97025000D01*
X112447671Y-96775000D02*
X112447671Y-97275000D01*
X115002446Y-95920000D02*
X115002446Y-101080000D01*
X115042446Y-95920000D02*
X115042446Y-101080000D01*
X115082446Y-95921000D02*
X115082446Y-101079000D01*
X115122446Y-95923000D02*
X115122446Y-101077000D01*
X115162446Y-95925000D02*
X115162446Y-101075000D01*
X115202446Y-95928000D02*
X115202446Y-101072000D01*
X115242446Y-95931000D02*
X115242446Y-97460000D01*
X115242446Y-99540000D02*
X115242446Y-101069000D01*
X115282446Y-95935000D02*
X115282446Y-97460000D01*
X115282446Y-99540000D02*
X115282446Y-101065000D01*
X115322446Y-95940000D02*
X115322446Y-97460000D01*
X115322446Y-99540000D02*
X115322446Y-101060000D01*
X115362446Y-95945000D02*
X115362446Y-97460000D01*
X115362446Y-99540000D02*
X115362446Y-101055000D01*
X115402446Y-95951000D02*
X115402446Y-97460000D01*
X115402446Y-99540000D02*
X115402446Y-101049000D01*
X115442446Y-95957000D02*
X115442446Y-97460000D01*
X115442446Y-99540000D02*
X115442446Y-101043000D01*
X115482446Y-95964000D02*
X115482446Y-97460000D01*
X115482446Y-99540000D02*
X115482446Y-101036000D01*
X115522446Y-95972000D02*
X115522446Y-97460000D01*
X115522446Y-99540000D02*
X115522446Y-101028000D01*
X115562446Y-95981000D02*
X115562446Y-97460000D01*
X115562446Y-99540000D02*
X115562446Y-101019000D01*
X115602446Y-95990000D02*
X115602446Y-97460000D01*
X115602446Y-99540000D02*
X115602446Y-101010000D01*
X115642446Y-95999000D02*
X115642446Y-97460000D01*
X115642446Y-99540000D02*
X115642446Y-101001000D01*
X115682446Y-96010000D02*
X115682446Y-97460000D01*
X115682446Y-99540000D02*
X115682446Y-100990000D01*
X115722446Y-96021000D02*
X115722446Y-97460000D01*
X115722446Y-99540000D02*
X115722446Y-100979000D01*
X115762446Y-96033000D02*
X115762446Y-97460000D01*
X115762446Y-99540000D02*
X115762446Y-100967000D01*
X115802446Y-96045000D02*
X115802446Y-97460000D01*
X115802446Y-99540000D02*
X115802446Y-100955000D01*
X115842446Y-96058000D02*
X115842446Y-97460000D01*
X115842446Y-99540000D02*
X115842446Y-100942000D01*
X115882446Y-96072000D02*
X115882446Y-97460000D01*
X115882446Y-99540000D02*
X115882446Y-100928000D01*
X115922446Y-96087000D02*
X115922446Y-97460000D01*
X115922446Y-99540000D02*
X115922446Y-100913000D01*
X115962446Y-96102000D02*
X115962446Y-97460000D01*
X115962446Y-99540000D02*
X115962446Y-100898000D01*
X116002446Y-96118000D02*
X116002446Y-97460000D01*
X116002446Y-99540000D02*
X116002446Y-100882000D01*
X116042446Y-96135000D02*
X116042446Y-97460000D01*
X116042446Y-99540000D02*
X116042446Y-100865000D01*
X116082446Y-96153000D02*
X116082446Y-97460000D01*
X116082446Y-99540000D02*
X116082446Y-100847000D01*
X116122446Y-96171000D02*
X116122446Y-97460000D01*
X116122446Y-99540000D02*
X116122446Y-100829000D01*
X116162446Y-96191000D02*
X116162446Y-97460000D01*
X116162446Y-99540000D02*
X116162446Y-100809000D01*
X116202446Y-96211000D02*
X116202446Y-97460000D01*
X116202446Y-99540000D02*
X116202446Y-100789000D01*
X116242446Y-96232000D02*
X116242446Y-97460000D01*
X116242446Y-99540000D02*
X116242446Y-100768000D01*
X116282446Y-96254000D02*
X116282446Y-97460000D01*
X116282446Y-99540000D02*
X116282446Y-100746000D01*
X116322446Y-96277000D02*
X116322446Y-97460000D01*
X116322446Y-99540000D02*
X116322446Y-100723000D01*
X116362446Y-96301000D02*
X116362446Y-97460000D01*
X116362446Y-99540000D02*
X116362446Y-100699000D01*
X116402446Y-96325000D02*
X116402446Y-97460000D01*
X116402446Y-99540000D02*
X116402446Y-100675000D01*
X116442446Y-96351000D02*
X116442446Y-97460000D01*
X116442446Y-99540000D02*
X116442446Y-100649000D01*
X116482446Y-96378000D02*
X116482446Y-97460000D01*
X116482446Y-99540000D02*
X116482446Y-100622000D01*
X116522446Y-96406000D02*
X116522446Y-97460000D01*
X116522446Y-99540000D02*
X116522446Y-100594000D01*
X116562446Y-96435000D02*
X116562446Y-97460000D01*
X116562446Y-99540000D02*
X116562446Y-100565000D01*
X116602446Y-96465000D02*
X116602446Y-97460000D01*
X116602446Y-99540000D02*
X116602446Y-100535000D01*
X116642446Y-96497000D02*
X116642446Y-97460000D01*
X116642446Y-99540000D02*
X116642446Y-100503000D01*
X116682446Y-96530000D02*
X116682446Y-97460000D01*
X116682446Y-99540000D02*
X116682446Y-100470000D01*
X116722446Y-96564000D02*
X116722446Y-97460000D01*
X116722446Y-99540000D02*
X116722446Y-100436000D01*
X116762446Y-96599000D02*
X116762446Y-97460000D01*
X116762446Y-99540000D02*
X116762446Y-100401000D01*
X116802446Y-96636000D02*
X116802446Y-97460000D01*
X116802446Y-99540000D02*
X116802446Y-100364000D01*
X116842446Y-96675000D02*
X116842446Y-97460000D01*
X116842446Y-99540000D02*
X116842446Y-100325000D01*
X116882446Y-96715000D02*
X116882446Y-97460000D01*
X116882446Y-99540000D02*
X116882446Y-100285000D01*
X116922446Y-96757000D02*
X116922446Y-97460000D01*
X116922446Y-99540000D02*
X116922446Y-100243000D01*
X116962446Y-96801000D02*
X116962446Y-97460000D01*
X116962446Y-99540000D02*
X116962446Y-100199000D01*
X117002446Y-96848000D02*
X117002446Y-97460000D01*
X117002446Y-99540000D02*
X117002446Y-100152000D01*
X117042446Y-96896000D02*
X117042446Y-97460000D01*
X117042446Y-99540000D02*
X117042446Y-100104000D01*
X117082446Y-96947000D02*
X117082446Y-97460000D01*
X117082446Y-99540000D02*
X117082446Y-100053000D01*
X117122446Y-97001000D02*
X117122446Y-97460000D01*
X117122446Y-99540000D02*
X117122446Y-99999000D01*
X117162446Y-97057000D02*
X117162446Y-97460000D01*
X117162446Y-99540000D02*
X117162446Y-99943000D01*
X117202446Y-97117000D02*
X117202446Y-97460000D01*
X117202446Y-99540000D02*
X117202446Y-99883000D01*
X117242446Y-97181000D02*
X117242446Y-97460000D01*
X117242446Y-99540000D02*
X117242446Y-99819000D01*
X117282446Y-97249000D02*
X117282446Y-97460000D01*
X117282446Y-99540000D02*
X117282446Y-99751000D01*
X117322446Y-97323000D02*
X117322446Y-99677000D01*
X117362446Y-97402000D02*
X117362446Y-99598000D01*
X117402446Y-97489000D02*
X117402446Y-99511000D01*
X117442446Y-97586000D02*
X117442446Y-99414000D01*
X117482446Y-97695000D02*
X117482446Y-99305000D01*
X117522446Y-97823000D02*
X117522446Y-99177000D01*
X117562446Y-97983000D02*
X117562446Y-99017000D01*
X117602446Y-98217000D02*
X117602446Y-98783000D01*
X117622446Y-98500000D02*
G75*
G02*
X112382446Y-98500000I-2620000J0D01*
G01*
X112382446Y-98500000D02*
G75*
G02*
X117622446Y-98500000I2620000J0D01*
G01*
%TO.C,C6*%
X145445225Y-94025000D02*
X145945225Y-94025000D01*
X145695225Y-93775000D02*
X145695225Y-94275000D01*
X148250000Y-92920000D02*
X148250000Y-98080000D01*
X148290000Y-92920000D02*
X148290000Y-98080000D01*
X148330000Y-92921000D02*
X148330000Y-98079000D01*
X148370000Y-92923000D02*
X148370000Y-98077000D01*
X148410000Y-92925000D02*
X148410000Y-98075000D01*
X148450000Y-92928000D02*
X148450000Y-98072000D01*
X148490000Y-92931000D02*
X148490000Y-94460000D01*
X148490000Y-96540000D02*
X148490000Y-98069000D01*
X148530000Y-92935000D02*
X148530000Y-94460000D01*
X148530000Y-96540000D02*
X148530000Y-98065000D01*
X148570000Y-92940000D02*
X148570000Y-94460000D01*
X148570000Y-96540000D02*
X148570000Y-98060000D01*
X148610000Y-92945000D02*
X148610000Y-94460000D01*
X148610000Y-96540000D02*
X148610000Y-98055000D01*
X148650000Y-92951000D02*
X148650000Y-94460000D01*
X148650000Y-96540000D02*
X148650000Y-98049000D01*
X148690000Y-92957000D02*
X148690000Y-94460000D01*
X148690000Y-96540000D02*
X148690000Y-98043000D01*
X148730000Y-92964000D02*
X148730000Y-94460000D01*
X148730000Y-96540000D02*
X148730000Y-98036000D01*
X148770000Y-92972000D02*
X148770000Y-94460000D01*
X148770000Y-96540000D02*
X148770000Y-98028000D01*
X148810000Y-92981000D02*
X148810000Y-94460000D01*
X148810000Y-96540000D02*
X148810000Y-98019000D01*
X148850000Y-92990000D02*
X148850000Y-94460000D01*
X148850000Y-96540000D02*
X148850000Y-98010000D01*
X148890000Y-92999000D02*
X148890000Y-94460000D01*
X148890000Y-96540000D02*
X148890000Y-98001000D01*
X148930000Y-93010000D02*
X148930000Y-94460000D01*
X148930000Y-96540000D02*
X148930000Y-97990000D01*
X148970000Y-93021000D02*
X148970000Y-94460000D01*
X148970000Y-96540000D02*
X148970000Y-97979000D01*
X149010000Y-93033000D02*
X149010000Y-94460000D01*
X149010000Y-96540000D02*
X149010000Y-97967000D01*
X149050000Y-93045000D02*
X149050000Y-94460000D01*
X149050000Y-96540000D02*
X149050000Y-97955000D01*
X149090000Y-93058000D02*
X149090000Y-94460000D01*
X149090000Y-96540000D02*
X149090000Y-97942000D01*
X149130000Y-93072000D02*
X149130000Y-94460000D01*
X149130000Y-96540000D02*
X149130000Y-97928000D01*
X149170000Y-93087000D02*
X149170000Y-94460000D01*
X149170000Y-96540000D02*
X149170000Y-97913000D01*
X149210000Y-93102000D02*
X149210000Y-94460000D01*
X149210000Y-96540000D02*
X149210000Y-97898000D01*
X149250000Y-93118000D02*
X149250000Y-94460000D01*
X149250000Y-96540000D02*
X149250000Y-97882000D01*
X149290000Y-93135000D02*
X149290000Y-94460000D01*
X149290000Y-96540000D02*
X149290000Y-97865000D01*
X149330000Y-93153000D02*
X149330000Y-94460000D01*
X149330000Y-96540000D02*
X149330000Y-97847000D01*
X149370000Y-93171000D02*
X149370000Y-94460000D01*
X149370000Y-96540000D02*
X149370000Y-97829000D01*
X149410000Y-93191000D02*
X149410000Y-94460000D01*
X149410000Y-96540000D02*
X149410000Y-97809000D01*
X149450000Y-93211000D02*
X149450000Y-94460000D01*
X149450000Y-96540000D02*
X149450000Y-97789000D01*
X149490000Y-93232000D02*
X149490000Y-94460000D01*
X149490000Y-96540000D02*
X149490000Y-97768000D01*
X149530000Y-93254000D02*
X149530000Y-94460000D01*
X149530000Y-96540000D02*
X149530000Y-97746000D01*
X149570000Y-93277000D02*
X149570000Y-94460000D01*
X149570000Y-96540000D02*
X149570000Y-97723000D01*
X149610000Y-93301000D02*
X149610000Y-94460000D01*
X149610000Y-96540000D02*
X149610000Y-97699000D01*
X149650000Y-93325000D02*
X149650000Y-94460000D01*
X149650000Y-96540000D02*
X149650000Y-97675000D01*
X149690000Y-93351000D02*
X149690000Y-94460000D01*
X149690000Y-96540000D02*
X149690000Y-97649000D01*
X149730000Y-93378000D02*
X149730000Y-94460000D01*
X149730000Y-96540000D02*
X149730000Y-97622000D01*
X149770000Y-93406000D02*
X149770000Y-94460000D01*
X149770000Y-96540000D02*
X149770000Y-97594000D01*
X149810000Y-93435000D02*
X149810000Y-94460000D01*
X149810000Y-96540000D02*
X149810000Y-97565000D01*
X149850000Y-93465000D02*
X149850000Y-94460000D01*
X149850000Y-96540000D02*
X149850000Y-97535000D01*
X149890000Y-93497000D02*
X149890000Y-94460000D01*
X149890000Y-96540000D02*
X149890000Y-97503000D01*
X149930000Y-93530000D02*
X149930000Y-94460000D01*
X149930000Y-96540000D02*
X149930000Y-97470000D01*
X149970000Y-93564000D02*
X149970000Y-94460000D01*
X149970000Y-96540000D02*
X149970000Y-97436000D01*
X150010000Y-93599000D02*
X150010000Y-94460000D01*
X150010000Y-96540000D02*
X150010000Y-97401000D01*
X150050000Y-93636000D02*
X150050000Y-94460000D01*
X150050000Y-96540000D02*
X150050000Y-97364000D01*
X150090000Y-93675000D02*
X150090000Y-94460000D01*
X150090000Y-96540000D02*
X150090000Y-97325000D01*
X150130000Y-93715000D02*
X150130000Y-94460000D01*
X150130000Y-96540000D02*
X150130000Y-97285000D01*
X150170000Y-93757000D02*
X150170000Y-94460000D01*
X150170000Y-96540000D02*
X150170000Y-97243000D01*
X150210000Y-93801000D02*
X150210000Y-94460000D01*
X150210000Y-96540000D02*
X150210000Y-97199000D01*
X150250000Y-93848000D02*
X150250000Y-94460000D01*
X150250000Y-96540000D02*
X150250000Y-97152000D01*
X150290000Y-93896000D02*
X150290000Y-94460000D01*
X150290000Y-96540000D02*
X150290000Y-97104000D01*
X150330000Y-93947000D02*
X150330000Y-94460000D01*
X150330000Y-96540000D02*
X150330000Y-97053000D01*
X150370000Y-94001000D02*
X150370000Y-94460000D01*
X150370000Y-96540000D02*
X150370000Y-96999000D01*
X150410000Y-94057000D02*
X150410000Y-94460000D01*
X150410000Y-96540000D02*
X150410000Y-96943000D01*
X150450000Y-94117000D02*
X150450000Y-94460000D01*
X150450000Y-96540000D02*
X150450000Y-96883000D01*
X150490000Y-94181000D02*
X150490000Y-94460000D01*
X150490000Y-96540000D02*
X150490000Y-96819000D01*
X150530000Y-94249000D02*
X150530000Y-94460000D01*
X150530000Y-96540000D02*
X150530000Y-96751000D01*
X150570000Y-94323000D02*
X150570000Y-96677000D01*
X150610000Y-94402000D02*
X150610000Y-96598000D01*
X150650000Y-94489000D02*
X150650000Y-96511000D01*
X150690000Y-94586000D02*
X150690000Y-96414000D01*
X150730000Y-94695000D02*
X150730000Y-96305000D01*
X150770000Y-94823000D02*
X150770000Y-96177000D01*
X150810000Y-94983000D02*
X150810000Y-96017000D01*
X150850000Y-95217000D02*
X150850000Y-95783000D01*
X150870000Y-95500000D02*
G75*
G02*
X145630000Y-95500000I-2620000J0D01*
G01*
X145630000Y-95500000D02*
G75*
G02*
X150870000Y-95500000I2620000J0D01*
G01*
%TO.C,J2*%
X154600000Y-67300000D02*
X156600000Y-67300000D01*
X154600000Y-76700000D02*
X156600000Y-76700000D01*
X158500000Y-67300000D02*
X160400000Y-67300000D01*
X158500000Y-76700000D02*
X160400000Y-76700000D01*
X160400000Y-76700000D02*
X160400000Y-67300000D01*
%TD*%
%LPC*%
D15*
%TO.C,U3*%
X117440000Y-74740000D03*
X118090000Y-74740000D03*
X118740000Y-74740000D03*
X119400000Y-74740000D03*
X120050000Y-74740000D03*
X120700000Y-74740000D03*
X121350000Y-74740000D03*
X122000000Y-74740000D03*
X122000000Y-69000000D03*
X121350000Y-69000000D03*
X120700000Y-69000000D03*
X120050000Y-69000000D03*
X119400000Y-69000000D03*
X118740000Y-69000000D03*
X118090000Y-69000000D03*
X117440000Y-69000000D03*
%TD*%
D16*
%TO.C,C2*%
X121500000Y-89000000D03*
D17*
X124000000Y-89000000D03*
%TD*%
D16*
%TO.C,C8*%
X128000000Y-89000000D03*
D17*
X130500000Y-89000000D03*
%TD*%
D18*
%TO.C,R1*%
X149500000Y-70000000D03*
X148540000Y-70000000D03*
%TD*%
D16*
%TO.C,C7*%
X139500000Y-83500000D03*
D17*
X142000000Y-83500000D03*
%TD*%
D19*
%TO.C,U1*%
X146350000Y-80700000D03*
X146350000Y-83000000D03*
D20*
X152650000Y-83000000D03*
D19*
X146350000Y-85300000D03*
%TD*%
D18*
%TO.C,R2*%
X149460000Y-73000000D03*
X148500000Y-73000000D03*
%TD*%
D16*
%TO.C,C3*%
X140294888Y-95500000D03*
D17*
X142794888Y-95500000D03*
%TD*%
D21*
%TO.C,J1*%
X103340000Y-68620000D03*
D22*
X103340000Y-71380000D03*
X103340000Y-74140000D03*
X103340000Y-76900000D03*
X103340000Y-79660000D03*
X100500000Y-70000000D03*
X100500000Y-72760000D03*
X100500000Y-75520000D03*
X100500000Y-78280000D03*
D23*
X101920000Y-86640000D03*
X101920000Y-61640000D03*
%TD*%
D24*
%TO.C,R3*%
X119725000Y-95725000D03*
X134965000Y-95725000D03*
%TD*%
D16*
%TO.C,C1*%
X115794888Y-89000000D03*
D17*
X118294888Y-89000000D03*
%TD*%
D16*
%TO.C,C5*%
X121794888Y-82500000D03*
D17*
X124294888Y-82500000D03*
%TD*%
D25*
%TO.C,U2*%
X123775000Y-66375000D03*
X123775000Y-67875000D03*
X123775000Y-69375000D03*
X123775000Y-70875000D03*
X123775000Y-72375000D03*
X123775000Y-73875000D03*
X123775000Y-75375000D03*
X123775000Y-76875000D03*
X123775000Y-78375000D03*
X141275000Y-78375000D03*
X141275000Y-76875000D03*
X141275000Y-75375000D03*
X141275000Y-73875000D03*
X141275000Y-72375000D03*
X141275000Y-70875000D03*
X141275000Y-69375000D03*
X141275000Y-67875000D03*
X141275000Y-66375000D03*
D26*
X132385000Y-72025000D03*
X132385000Y-73125000D03*
X132935000Y-71475000D03*
X132935000Y-72575000D03*
X132935000Y-73675000D03*
X133485000Y-72025000D03*
D27*
X133485000Y-72575000D03*
D26*
X133485000Y-73125000D03*
X134035000Y-71475000D03*
X134035000Y-72575000D03*
X134035000Y-73675000D03*
X134585000Y-72025000D03*
X134585000Y-73125000D03*
%TD*%
D16*
%TO.C,C4*%
X113752446Y-98500000D03*
D17*
X116252446Y-98500000D03*
%TD*%
D16*
%TO.C,C6*%
X147000000Y-95500000D03*
D17*
X149500000Y-95500000D03*
%TD*%
D28*
%TO.C,J2*%
X153900000Y-74890000D03*
X153900000Y-69110000D03*
D29*
X152455000Y-75250000D03*
X152455000Y-74450000D03*
D30*
X152455000Y-73250000D03*
X152455000Y-72250000D03*
X152455000Y-71750000D03*
X152455000Y-70750000D03*
D29*
X152455000Y-69550000D03*
X152455000Y-68750000D03*
X152455000Y-68750000D03*
X152455000Y-69550000D03*
D30*
X152455000Y-70250000D03*
X152455000Y-71250000D03*
X152455000Y-72750000D03*
X152455000Y-73750000D03*
D29*
X152455000Y-74450000D03*
X152455000Y-75250000D03*
D31*
X153370000Y-76320000D03*
D32*
X157550000Y-76320000D03*
D31*
X153370000Y-67680000D03*
D32*
X157550000Y-67680000D03*
%TD*%
%LPD*%
M02*
